<svg width="53" height="71" viewBox="0 0 53 71" fill="none" xmlns="http://www.w3.org/2000/svg">
<path d="M14.208 32.1573C14.1825 35.6235 14.1563 52.2616 14.1433 61.3807C12.6965 61.9248 10.5461 62.271 8.13975 62.271C3.7832 62.271 0.251953 61.1392 0.251953 59.7452V59.5402C0.251953 59.5402 0.2808 35.8169 0.307471 32.0264C0.336863 28.2352 1.87126 26.2115 3.34839 24.7772C4.82607 23.3429 4.88389 21.1917 4.88389 21.1917L4.88226 12.0121C4.64604 11.9363 4.4735 11.7367 4.4735 11.4996V9.83402C4.4735 9.59578 4.64658 9.39733 4.88172 9.32155V8.36095C4.88117 7.7847 6.33933 7.31857 8.13875 7.31857C9.93816 7.31857 11.3958 7.78525 11.3958 8.36039V9.32099C11.6331 9.39677 11.8073 9.59631 11.8073 9.83455V11.5001C11.8073 11.7384 11.6331 11.9379 11.3958 12.0126V21.1907C11.3958 21.1907 11.4529 23.343 12.9307 24.7762C13.6345 25.4588 14.3453 26.2825 14.9049 27.3576C14.4869 28.7162 14.2223 30.2967 14.2082 32.1568L14.208 32.1573ZM52.8396 32.0242C52.8107 28.2331 51.278 26.2094 49.7986 24.7745C48.321 23.3402 48.2637 21.189 48.2637 21.189V12.0115C48.501 11.9362 48.6752 11.7372 48.6752 11.499V9.83343C48.6752 9.59519 48.5005 9.39565 48.2637 9.31987V8.35927C48.2637 7.78302 46.8061 7.31745 45.0067 7.31745C43.2067 7.31745 41.7491 7.78412 41.7496 8.35983V9.32043C41.514 9.39621 41.3414 9.59575 41.3414 9.8329V11.4985C41.3414 11.7362 41.5145 11.9351 41.7502 12.0109L41.7518 21.1905C41.7518 21.1905 41.6941 23.3423 40.2163 24.7761C39.5131 25.4587 38.8033 26.2813 38.2427 27.3558C38.6618 28.7149 38.9252 30.2944 38.9394 32.1539C38.965 35.6201 38.9916 52.261 39.0047 61.3802C40.4515 61.9243 42.6019 62.2694 45.0066 62.2694C49.3631 62.2694 52.8938 61.1376 52.8955 59.7426L52.8966 59.5398C52.8966 59.5398 52.8683 35.8165 52.8394 32.0245L52.8396 32.0242ZM32.708 22.8931C30.8166 21.0569 30.743 18.3026 30.743 18.3026L30.7425 6.55573C31.0467 6.45978 31.2693 6.2041 31.2693 5.89825L31.2688 3.76668C31.2688 3.46084 31.0462 3.20733 30.7419 3.1092V1.88038C30.7419 1.14385 28.8755 0.546875 26.5738 0.546875C24.2704 0.546875 22.4039 1.14384 22.4045 1.88092V3.11029C22.1024 3.20733 21.8809 3.46193 21.8809 3.76668V5.89881C21.8809 6.20357 22.1019 6.45762 22.4045 6.5552L22.4061 18.3053C22.4061 18.3053 22.3327 21.0595 20.4412 22.8957C18.5498 24.7319 16.586 27.3226 16.5489 32.1751C16.513 37.0278 16.4765 67.3929 16.4765 67.3929V67.6546C16.4765 69.439 20.9974 70.8869 26.5737 70.8869C32.15 70.8869 36.6708 69.439 36.6714 67.6529V67.3902C36.6714 67.3902 36.6349 37.0236 36.5979 32.171C36.5625 27.3194 34.5998 24.7288 32.7078 22.8927L32.708 22.8931Z" fill="#A12B4E"/>
</svg>
