<svg width="65" height="73" viewBox="0 0 65 73" fill="none" xmlns="http://www.w3.org/2000/svg">
<g clip-path="url(#clip0_590_12066)">
<path d="M56.2175 29.1579C56.2175 29.1579 56.8346 28.9768 57.8295 29.3509L61.1278 20.95C61.0772 20.5788 61.1171 20.1728 61.3265 19.7447C61.3368 19.7212 61.344 19.6991 61.3564 19.6757C58.8139 21.1671 54.6718 21.7561 49.7283 21.3753C49.6826 21.6713 49.5922 22.0111 49.4378 22.4153C48.4566 25.0166 48.3261 22.8232 47.5323 23.2523C46.7371 23.6808 45.1273 24.8555 45.0136 24.2013C44.9373 23.7715 44.7783 21.8852 44.9372 20.7421C42.6439 20.3198 40.2491 19.7175 37.8167 18.9272C37.6258 18.8651 37.4372 18.8009 37.2482 18.737C37.2244 18.8329 37.1874 18.928 37.1186 19.0262C37.1186 19.0262 36.8887 19.4008 35.8081 19.5588C34.7258 19.7173 33.7654 19.7808 33.7136 18.9455C33.6227 17.8803 33.8075 17.6365 34.0788 17.5702C25.8071 14.2364 19.7325 9.48484 18.1699 5.30566L16.0485 13.4672C18.5066 12.0336 16.2615 17.0286 16.3054 18.2051C16.3523 19.3925 16.3345 20.4353 15.642 20.4983C15.2016 20.5365 14.9368 20.02 14.5294 19.3178L11.8012 29.8228C11.9348 29.8583 12.0697 29.9071 12.2029 29.9863C13.639 30.8235 13.7711 30.4813 11.8746 32.1827C11.149 34.1029 10.9093 34.3673 10.6102 34.4027L7.58667 46.0387C7.88622 46.3054 8.34725 46.6635 9.03453 47.0646C10.4717 47.9027 11.6274 45.5248 10.4458 48.655C9.26463 51.7848 9.3646 49.1307 8.40996 49.6475C7.96587 49.8858 7.2497 49.944 6.59363 49.8613L6.34843 50.8139C6.33642 50.8508 6.32751 50.8863 6.3158 50.9223C5.02082 54.9079 10.3336 61.3183 22.7338 65.3474C26.635 66.6149 30.1049 67.2791 33.0724 67.4691C32.6602 66.299 32.2249 66.2174 34.4224 64.9412C37.0006 63.4415 37.1444 66.0005 38.0355 66.4056C38.4962 66.615 38.9132 66.8302 39.1624 67.0915C42.0856 66.4287 43.9319 65.0594 44.4947 63.3273C44.5064 63.2912 44.5179 63.2561 44.5325 63.2205L49.829 49.7271C49.7786 49.6659 49.7245 49.601 49.6656 49.531C49.6656 49.531 47.8369 48.5513 48.826 47.2964C49.7046 46.1751 50.4374 46.4401 51.2506 46.1075L55.9269 34.1954C55.5582 34.5439 55.2816 34.7106 55.2288 34.408C55.0903 33.6187 55.1446 29.3457 56.2175 29.1577L56.2175 29.1579ZM19.7132 30.7858C19.7132 30.7858 18.2494 32.4871 17.4015 31.5386C16.5501 30.5919 18.4829 29.9781 18.1568 28.9988C17.4519 26.8722 19.3553 26.6807 20.0905 26.5211C20.8261 26.3616 21.4923 28.1178 21.4639 28.7308C21.4319 29.3441 20.5925 29.7025 19.7131 30.7858L19.7132 30.7858ZM17.6525 58.9763C17.1272 59.1877 15.152 59.5149 14.6862 58.7772C14.6862 58.7772 13.8096 57.6898 14.0476 56.6926C14.4142 55.1404 13.9751 53.8659 15.873 54.6434C17.7725 55.422 15.9923 55.8578 16.2258 56.6969C16.4591 57.5379 18.1774 58.7647 17.6525 58.9762L17.6525 58.9763ZM22.3818 48.2985C22.3818 48.2985 22.0695 48.3878 21.418 47.6974C20.7672 47.0047 20.0827 46.8481 20.6282 45.7212C21.5829 44.1787 21.6945 45.1485 22.2458 45.0143C22.796 44.8802 22.2942 46.244 22.2798 46.7041C22.2642 47.1599 22.9339 48.1925 22.3817 48.2985L22.3818 48.2985ZM31.3725 31.209C30.539 33.4175 31.1526 32.521 30.4796 32.8836C29.8033 33.2467 29.4996 33.7792 29.4029 33.2237C29.3039 32.666 29.3745 30.6544 30.0572 30.3248C30.0572 30.3248 31.1296 29.0661 32.1424 29.6578C33.1569 30.25 32.7106 30.0098 31.3726 31.209L31.3725 31.209ZM35.3038 51.1784C34.6237 51.4531 32.6194 52.7657 31.0315 50.695C31.0315 50.695 30.1216 49.2286 31.0208 47.3732C31.9201 45.5158 30.8749 44.811 33.341 45.8195C35.8071 46.828 33.2318 48.0516 33.5329 49.1428C33.8378 50.2327 35.9853 50.9046 35.3038 51.1783L35.3038 51.1784ZM47.0202 38.3567C46.6324 38.5126 45.275 38.6674 45.1257 38.033C45.1257 38.033 43.8197 37.7208 44.3331 36.6606C44.8477 35.6023 45.2631 34.9348 45.931 36.1162C47.3369 36.6921 47.2413 35.7643 47.4147 36.3871C47.5871 37.009 47.4099 38.2003 47.0202 38.3567L47.0202 38.3567Z" fill="#A12B4E"/>
<path d="M23.9061 8.50991C25.034 9.47766 26.3285 10.4139 27.7573 11.3031C27.916 10.8146 28.2326 10.2425 28.8686 9.96596C30.0939 9.43052 30.1178 8.52918 30.7937 10.7021C31.468 12.8759 30.3587 11.6078 30.0149 12.4506C29.9991 12.4913 29.9841 12.5373 29.9695 12.5823C32.5828 13.9934 35.5303 15.2494 38.6769 16.2719C44.6128 18.2005 50.4771 19.0533 55.188 18.6736C56.1042 18.6002 56.9106 18.4811 57.6206 18.3347C57.5237 18.077 57.4942 17.8213 57.5885 17.6073C57.5885 17.6073 57.6914 16.1219 58.7146 15.6751C59.7413 15.2281 59.6794 15.0297 59.3593 16.6832C59.5268 17.2198 59.606 17.547 59.6309 17.7648C61.0743 17.213 61.7712 16.5671 61.8934 16.191C62.1049 15.5399 61.4153 13.2289 57.9283 10.2399C56.4196 8.94561 54.6119 7.70768 52.5843 6.56362C52.2471 6.51286 51.9334 6.46224 51.7292 6.48506C51.0369 6.56599 49.2977 8.29549 49.2742 7.10412C49.2742 7.10412 49.2343 6.55564 50.118 5.27059C47.962 4.22233 45.6211 3.27742 43.1597 2.47765C39.8817 1.41259 36.6286 0.677876 33.5774 0.294743C32.9706 1.58459 32.8848 0.861805 32.1197 1.27383C31.1628 1.79086 29.3547 1.81662 29.2162 1.02734C29.1741 0.782512 29.2882 0.40712 29.4917 -0.00649935C28.5064 -0.0237665 27.5545 0.00170892 26.6469 0.0754649C22.0702 0.444604 20.1539 1.90875 19.9424 2.55979C19.7306 3.2118 20.4204 5.52229 23.9063 8.51014L23.9061 8.50991ZM44.5825 8.45304C45.0233 7.80516 45.3811 7.66934 45.6828 8.02545C45.9823 8.38078 44.9544 9.90896 44.4512 10.6167C44.4512 10.6167 44.9593 12.8636 43.2579 12.0657C42.237 11.5885 43.4779 10.8554 43.2961 9.93204C43.0693 8.76236 44.1416 9.10134 44.5825 8.45301L44.5825 8.45304Z" fill="#A12B4E"/>
</g>
<defs>
<clipPath id="clip0_590_12066">
<rect width="45.7721" height="66.2235" fill="white" transform="translate(21.3555 -4.65234) rotate(18)"/>
</clipPath>
</defs>
</svg>
