<svg width="68" height="67" viewBox="0 0 68 67" fill="none" xmlns="http://www.w3.org/2000/svg">
<path d="M19.759 0.241282C19.2687 0.238973 18.7974 0.431057 18.4509 0.773658C18.1039 1.11672 17.9101 1.58262 17.912 2.06739V29.3346C17.9134 29.8175 18.1086 30.2797 18.4551 30.62C18.8017 30.9608 19.2706 31.1506 19.7591 31.1487H47.3425C47.8277 31.1464 48.2929 30.9543 48.6361 30.6145C48.9789 30.2747 49.1718 29.8143 49.1732 29.3346V2.06742C49.1751 1.58537 48.9836 1.12179 48.6403 0.779592C48.2971 0.436991 47.83 0.243516 47.3425 0.241211H38.4214V11.1011C38.4177 12.1054 37.5943 12.9149 36.5785 12.9111H30.5099C29.4998 12.9078 28.6788 12.1003 28.6754 11.1011V0.241211L19.759 0.241282ZM32.3582 0.241282V9.2751H34.7451V0.241282H32.3582ZM1.91367 35.5285C1.42375 35.5262 0.953468 35.7174 0.606412 36.0595C0.259883 36.4017 0.0655991 36.8662 0.0665317 37.3506V64.6213C0.0674657 65.1042 0.263147 65.5669 0.609689 65.9072C0.956218 66.2475 1.42512 66.4377 1.9136 66.4354H29.4934C29.9796 66.4345 30.4457 66.2429 30.7895 65.9031C31.1332 65.5628 31.327 65.102 31.3284 64.6213V37.3505C31.3293 36.868 31.1365 36.4054 30.7923 36.0637C30.4485 35.722 29.981 35.5294 29.4935 35.5285H20.5766V46.3843C20.5728 47.3886 19.7452 48.198 18.7295 48.1943H12.6651C11.6545 48.1906 10.8339 47.3834 10.8301 46.3843V35.5285L1.91367 35.5285ZM14.5128 35.5285V44.5582H16.8993V35.5285H14.5128ZM37.6056 35.5285H37.6061C37.1161 35.5262 36.6454 35.7174 36.2988 36.0595C35.9518 36.4012 35.7575 36.8662 35.7585 37.3506V64.6213C35.7599 65.1042 35.9551 65.5669 36.3016 65.9072C36.6481 66.2475 37.1175 66.4377 37.606 66.4354H65.1894C65.6751 66.4331 66.1398 66.2415 66.4831 65.9017C66.8259 65.5618 67.0192 65.1015 67.0201 64.6213V37.3506C67.0211 36.869 66.8291 36.4068 66.4859 36.0651C66.1426 35.7234 65.6765 35.5304 65.1894 35.5286H56.2724V46.3844C56.2687 47.3886 55.4411 48.1981 54.4254 48.1943H48.3573C47.3466 48.1906 46.5261 47.3835 46.5223 46.3844V35.5286L37.6056 35.5285ZM50.2047 35.5285V44.5582H52.5954V35.5285H50.2047Z" fill="#A12B4E"/>
</svg>
