<svg width="74" height="66" viewBox="0 0 74 66" fill="none" xmlns="http://www.w3.org/2000/svg">
<path d="M73.2601 62.9925L46.5145 23.1481V17.3614L59.8868 10.8144H59.8875C60.464 10.5333 60.8203 10.0071 60.8203 9.43661C60.8203 8.86673 60.464 8.34046 59.8875 8.05938L45.585 1.05335C45.0149 0.769517 44.3113 0.770068 43.7412 1.05446C43.1711 1.33885 42.8219 1.86401 42.8245 2.43058V23.6074L27.731 46.106L21.5 36.8199C21.172 36.3273 20.5627 36.0241 19.9034 36.0241C19.2435 36.0241 18.6349 36.3273 18.3068 36.8199L0.736691 62.9912C0.408001 63.4816 0.408001 64.0846 0.736691 64.575C1.06666 65.0664 1.67783 65.3685 2.33842 65.3663H71.6576C72.3182 65.3685 72.9294 65.0664 73.2593 64.575C73.588 64.0846 73.588 63.4816 73.2593 62.9912L73.2601 62.9925Z" fill="#A12B4E"/>
</svg>
