<svg width="414" height="583" viewBox="0 0 414 583" fill="none" xmlns="http://www.w3.org/2000/svg">
<path fill-rule="evenodd" clip-rule="evenodd" d="M179.893 0.624575C113.494 3.77928 59.7306 17.4932 35.9528 37.3399C31.2205 41.2897 26.3013 47.8963 25.9299 50.8003C25.8345 51.5451 25.2826 53.2432 24.7035 54.574C15.526 75.6576 6.53195 131.278 2.95051 189.105C-6.25123 337.661 6.93381 503.193 30.5083 535.088C51.8008 563.896 107.919 580.613 190.545 582.763C292.79 585.422 366.875 565.58 386.508 530.276C399.232 507.395 410.119 430.469 413.082 342.509C417.197 220.359 407.297 109.59 387.039 51.0974C375.953 19.0882 280.548 -4.15805 179.893 0.624575ZM225.647 12.2257C250.581 13.1452 266.349 14.6221 288.348 18.0976C334.881 25.4494 370.624 40.4922 375.493 54.7733C380.481 69.4067 357.982 84.3827 315.472 94.7237C224.598 116.83 88.9084 106.206 45.477 73.5835C4.48244 42.7909 107.074 7.85296 225.647 12.2257ZM290.867 50.9871C276.66 52.1592 264.532 56.6737 266.606 60.0181C271.997 68.7089 319.449 70.2599 332.603 62.175C342.849 55.8767 316.67 48.8593 290.867 50.9871ZM34.5627 80.2462C52.7929 96.913 88.3293 108.612 140.191 115.021C162.772 117.812 175.188 118.452 206.765 118.452C283.989 118.452 345.711 105.252 375.544 82.3561C378.401 80.1639 380.194 79.9461 382.138 81.5552C384.013 83.1081 389.862 112.776 393.018 136.753L394.347 146.843L393.154 147.794C370.089 166.174 322.794 179.862 263.897 185.202C162.746 194.373 55.6214 178.156 19.8927 148.264L18.217 146.862L18.8266 141.852C21.3254 121.311 25.2758 98.7011 29.0451 83.3675C29.536 81.3713 30.074 79.1389 30.2405 78.4072C30.6438 76.6366 30.5882 76.6129 34.5627 80.2462ZM21.9636 157.15C95.423 205.008 313.344 205.985 388.14 158.79C391.786 156.49 395.401 156.124 395.809 158.013C396.705 162.169 398.498 192.699 398.498 203.806V212.351L396.645 214.592C359.816 259.138 165.785 273.742 61.2703 239.835C34.8334 231.258 12.6108 217.914 12.6108 210.616C12.6108 208.354 14.4908 184.067 16.0169 166.61C16.5403 160.626 16.9683 155.454 16.9683 155.117C16.9683 154.086 17.7469 154.403 21.9636 157.15ZM400.605 226.73C401.983 249.282 402.186 319.475 400.952 346.381C399.233 383.871 399.863 379.509 395.546 383.798C362.129 416.999 237.807 434.307 129.297 420.864C76.362 414.306 35.2275 400.713 18.8585 384.371L14.6971 380.216L14.3804 376.122C11.3994 337.596 11.2299 222.254 14.1543 222.254C14.4322 222.254 16.06 223.353 17.7711 224.697C66.6712 263.107 219.337 276.799 327.324 252.459C358.543 245.423 381.875 236.003 396.077 224.701C398.074 223.111 399.842 221.802 400.005 221.79C400.169 221.779 400.439 224.002 400.605 226.73ZM398.492 391.748C398.46 400.996 391.998 458.032 390.89 458.855C371.416 473.311 338.194 484.112 291.967 491.019C194.175 505.629 73.8608 492.662 26.9999 462.461C25.194 461.297 23.2243 460.345 22.6225 460.345C21.0761 460.345 12.8374 392.208 14.2168 390.829C14.3824 390.664 17.193 392.315 20.4636 394.498C95.9536 444.894 334.222 442.939 396.319 391.416C398.227 389.833 398.499 389.874 398.492 391.748ZM29.7302 470.708C47.8882 480.223 74.3687 488.62 100.73 493.223C103.793 493.757 107.413 494.407 108.775 494.666C200.586 512.148 339.161 498.741 388.671 467.586C390.23 466.605 390.261 466.867 389.251 472.443C383.064 506.586 378.07 523.055 371.69 530.358C348.326 557.098 291.995 570.908 206.281 570.908C116.328 570.908 53.8857 554.318 37.6392 526.104C37.0596 525.098 36.2026 524.174 35.7344 524.052C35.1399 523.897 34.8828 523.35 34.8828 522.242C34.8828 521.369 34.0263 517.809 32.979 514.333C29.674 503.358 26.8445 491.282 24.2406 477.04C23.4137 472.516 22.6225 468.432 22.4831 467.967C22.1136 466.735 22.24 466.783 29.7302 470.708Z" fill="#A12B4E"/>
</svg>
