<svg width="694" height="1221" viewBox="0 0 694 1221" fill="none" xmlns="http://www.w3.org/2000/svg">
<path d="M344.292 355.189C287.087 336.87 287.794 328.593 285.319 318.565C283.223 310.073 247.289 163.682 228.989 89.1935C233.18 86.5165 235.518 81.8514 234.435 77.4651L229.809 58.7228C228.729 54.3481 224.582 51.5694 219.747 51.5176L218.482 46.3923C218.482 46.3923 215.939 26.3528 154.272 44.2891L152.286 44.8668C90.6061 62.8067 97.647 81.538 97.647 81.538L98.9122 86.6633C94.7545 89.3559 92.44 94.0013 93.517 98.3643L98.1435 117.107C99.2262 121.493 103.373 124.272 108.249 124.312C126.725 198.749 163.023 345.035 165.119 353.526C167.597 363.566 172.007 370.341 130.916 417.251C89.8258 464.162 105.551 516.659 105.551 516.659C105.551 516.659 250.013 1064.23 269.568 1144.62C289.114 1225.03 432.592 1176.15 432.592 1176.15C432.592 1176.15 579.363 1140.6 559.256 1060.38C539.16 980.139 412.047 427.526 412.047 427.526C412.061 427.522 401.471 373.533 344.288 355.191L344.292 355.189Z" fill="white"/>
<path d="M408.139 426.202C408.2 426.435 408.255 426.65 408.305 426.846L408.674 428.449L412.047 427.526C408.674 428.449 408.674 428.451 408.675 428.455L408.679 428.474L408.697 428.55L408.766 428.85L409.039 430.037L410.106 434.675C410.531 436.524 411.048 438.767 411.649 441.381C412.371 444.517 413.216 448.188 414.175 452.352C417.69 467.619 422.734 489.519 428.849 516.05C441.08 569.112 457.598 640.697 474.743 714.79C509.028 862.95 545.84 1021.21 555.898 1061.37C560.619 1080.2 555.607 1096.35 545.222 1110.23C534.737 1124.24 518.784 1135.91 501.898 1145.25C485.056 1154.57 467.549 1161.44 454.219 1165.99C447.562 1168.26 441.967 1169.95 438.042 1171.06C436.08 1171.62 434.536 1172.03 433.488 1172.31C432.964 1172.44 432.564 1172.55 432.297 1172.61C432.174 1172.64 432.079 1172.67 432.014 1172.68L431.998 1172.69L431.926 1172.7L431.91 1172.71L431.907 1172.71L431.752 1172.75L431.601 1172.8L431.598 1172.8L431.582 1172.8L431.512 1172.83C431.448 1172.85 431.35 1172.88 431.219 1172.93C430.957 1173.01 430.563 1173.14 430.046 1173.31C429.012 1173.64 427.484 1174.12 425.529 1174.7C421.616 1175.87 415.995 1177.44 409.184 1179.09C395.546 1182.39 377.219 1185.94 358.341 1187.01C339.412 1188.08 320.224 1186.64 304.688 1180.19C289.299 1173.8 277.521 1162.54 272.932 1143.66L269.568 1144.62L272.932 1143.66C263.144 1103.42 222.129 946.384 183.575 799.465C164.294 725.993 145.625 655.034 131.776 602.443C124.852 576.147 119.132 554.444 115.144 539.314C113.15 531.749 111.588 525.828 110.525 521.797L109.313 517.201L109.003 516.025L108.925 515.728L108.905 515.653L108.9 515.634C108.899 515.63 108.898 515.628 105.551 516.659L108.898 515.628L108.883 515.572L108.868 515.521L108.868 515.52L108.868 515.519L108.867 515.517L108.863 515.504C108.858 515.487 108.85 515.458 108.838 515.416C108.815 515.333 108.778 515.201 108.73 515.022C108.635 514.663 108.496 514.115 108.33 513.392C107.999 511.947 107.563 509.804 107.162 507.078C106.359 501.62 105.698 493.847 106.281 484.65C107.447 466.281 113.569 442.266 133.462 419.555C154.01 396.097 163.549 382.282 167.529 372.864C169.566 368.043 170.206 364.246 170.059 360.841C169.944 358.172 169.322 355.794 168.798 353.788C168.685 353.357 168.577 352.944 168.48 352.548C166.383 344.054 130.084 197.765 111.609 123.33L110.98 120.797L108.4 120.776C104.701 120.746 102.136 118.688 101.504 116.129L96.8777 97.3868C96.2527 94.8547 97.5242 91.6817 100.693 89.6297L102.894 88.2038L102.273 85.6858L101.008 80.5605L100.959 80.3613L100.927 80.2781C100.92 80.2445 100.909 80.1865 100.898 80.1054C100.866 79.8622 100.837 79.3989 100.935 78.741C101.125 77.4635 101.836 75.1972 104.405 72.2072C109.655 66.0968 122.492 57.1746 153.124 48.2648L155.111 47.6871C185.737 38.7792 200.964 39.5388 208.327 41.9811C211.93 43.1763 213.591 44.7529 214.345 45.7562C214.734 46.2729 214.922 46.6902 215.006 46.9183C215.035 46.9945 215.052 47.0507 215.061 47.0838L215.072 47.1718L215.121 47.3698L216.386 52.4951L217.011 55.0257L219.588 55.0532C223.248 55.0924 225.818 57.1485 226.448 59.7003L231.075 78.4426C231.704 80.9915 230.416 84.1778 227.227 86.2149L225.005 87.6345L225.627 90.1672C234.693 127.066 248.086 181.611 259.549 228.298C271.226 275.854 280.9 315.256 281.958 319.542C282.056 319.939 282.153 320.356 282.254 320.792C282.723 322.81 283.279 325.204 284.407 327.576C285.847 330.605 288.148 333.546 292.133 336.617C298.874 341.812 310.748 347.601 332.39 355.009L332.213 355.061L343.144 358.567C370.828 367.447 387.196 384.925 396.671 400.201C401.414 407.849 404.424 414.94 406.242 420.101C407.151 422.68 407.76 424.772 408.139 426.202Z" stroke="#A12B4E" stroke-opacity="0.7" stroke-width="7"/>
</svg>
