<svg viewBox="0 0 469 1155" fill="none" xmlns="http://www.w3.org/2000/svg">
<path d="M251.292 319.053C194.087 300.733 194.794 292.456 192.319 282.428C190.223 273.937 154.289 127.546 135.989 53.0568C140.18 50.3798 142.518 45.7147 141.435 41.3284L136.809 22.5861C135.729 18.2114 131.582 15.4327 126.747 15.3809L125.482 10.2556C125.482 10.2556 122.939 -9.78397 61.2718 8.15237L59.2856 8.73007C-2.39386 26.67 4.64703 45.4012 4.64703 45.4012L5.91219 50.5265C1.75445 53.2192 -0.559958 57.8646 0.517016 62.2276L5.14346 80.9698C6.22622 85.3562 10.3732 88.135 15.2489 88.175C33.7249 162.613 70.023 308.898 72.119 317.389C74.5972 327.429 79.0067 334.204 37.9162 381.115C-3.17423 428.025 12.5513 480.523 12.5513 480.523C12.5513 480.523 157.013 1028.09 176.568 1108.49C196.114 1188.9 339.592 1140.01 339.592 1140.01C339.592 1140.01 486.363 1104.46 466.256 1024.24C446.16 944.002 319.047 391.389 319.047 391.389C319.061 391.385 308.471 337.396 251.288 319.054L251.292 319.053Z" fill="white"/>
<path d="M315.139 390.066C315.2 390.298 315.255 390.513 315.305 390.71L315.674 392.312L319.047 391.389C315.674 392.312 315.674 392.314 315.675 392.319L315.679 392.338L315.697 392.413L315.766 392.713L316.039 393.9L317.106 398.538C318.042 402.605 319.417 408.581 321.175 416.215C324.69 431.482 329.734 453.382 335.849 479.913C348.08 532.975 364.598 604.56 381.743 678.653C416.028 826.814 452.84 985.071 462.898 1025.23C467.619 1044.06 462.607 1060.21 452.222 1074.09C441.737 1088.11 425.784 1099.77 408.898 1109.11C392.056 1118.43 374.549 1125.31 361.219 1129.85C354.562 1132.12 348.967 1133.81 345.042 1134.92C343.08 1135.48 341.536 1135.9 340.488 1136.17C339.964 1136.31 339.564 1136.41 339.297 1136.48C339.164 1136.51 339.064 1136.53 338.998 1136.55L338.926 1136.57L338.91 1136.57L338.907 1136.57L338.752 1136.61L338.601 1136.66L338.598 1136.66L338.582 1136.67L338.512 1136.69C338.448 1136.71 338.35 1136.75 338.219 1136.79C337.957 1136.88 337.563 1137.01 337.046 1137.17C336.012 1137.5 334.484 1137.98 332.529 1138.56C328.616 1139.73 322.994 1141.31 316.184 1142.95C302.546 1146.25 284.219 1149.8 265.341 1150.87C246.412 1151.94 227.224 1150.5 211.688 1144.05C196.299 1137.66 184.521 1126.4 179.932 1107.52L176.568 1108.49L179.932 1107.52C170.144 1067.28 129.129 910.247 90.5746 763.329C71.2943 689.857 52.6252 618.897 38.7763 566.306C31.8518 540.011 26.1323 518.307 22.1439 503.177C20.1497 495.612 18.5883 489.691 17.5254 485.661L16.3133 481.065L16.003 479.888L15.9245 479.591L15.9048 479.516L15.8999 479.498C15.8988 479.493 15.8982 479.491 12.5513 480.523L15.8982 479.491L15.8835 479.435L15.8681 479.384L15.8678 479.383L15.8677 479.383L15.8669 479.38L15.8632 479.367C15.8583 479.35 15.8498 479.321 15.8381 479.28C15.8145 479.196 15.7779 479.064 15.7302 478.885C15.6349 478.526 15.4957 477.978 15.3302 477.255C14.9992 475.81 14.5633 473.668 14.162 470.941C13.3588 465.484 12.6978 457.71 13.2814 448.514C14.447 430.144 20.569 406.129 40.4617 383.419C61.0095 359.961 70.5489 346.146 74.5289 336.727C76.5665 331.906 77.2059 328.109 77.0591 324.704C76.9441 322.035 76.3224 319.657 75.798 317.651C75.6854 317.221 75.5773 316.807 75.4797 316.412C73.383 307.918 37.084 161.629 18.6085 87.1931L17.9799 84.6604L15.3996 84.6393C11.701 84.6089 9.13594 82.5516 8.50419 79.9923L3.87775 61.2501C3.25271 58.718 4.52425 55.545 7.69279 53.4929L9.89448 52.0671L9.27292 49.549L8.00776 44.4238L7.95861 44.2246L7.92731 44.1414C7.92005 44.1077 7.90892 44.0498 7.89824 43.9687C7.86621 43.7254 7.83653 43.2622 7.93464 42.6043C8.12515 41.3267 8.83649 39.0605 11.4053 36.0705C16.6549 29.9601 29.4915 21.0379 60.1244 12.1281L62.1106 11.5504C92.737 2.64246 107.964 3.40212 115.327 5.84443C118.93 7.03958 120.591 8.61616 121.345 9.61949C121.734 10.1361 121.922 10.5535 122.006 10.7816C122.035 10.8577 122.052 10.914 122.061 10.947L122.072 11.035L122.121 11.2331L123.386 16.3584L124.011 18.8889L126.588 18.9165C130.248 18.9557 132.818 21.0118 133.448 23.5636L138.075 42.3058C138.704 44.8547 137.416 48.041 134.227 50.0782L132.005 51.4978L132.627 54.0305C141.689 90.913 155.074 145.427 166.534 192.1C178.217 239.684 187.9 279.118 188.958 283.406C189.056 283.802 189.153 284.22 189.254 284.655C189.723 286.673 190.279 289.068 191.407 291.439C192.847 294.468 195.148 297.41 199.133 300.481C205.874 305.676 217.748 311.464 239.39 318.872L239.213 318.924L250.144 322.431C277.828 331.31 294.196 348.788 303.671 364.064C308.414 371.713 311.424 378.803 313.242 383.965C314.151 386.543 314.76 388.635 315.139 390.066Z" stroke="#A12B4E" stroke-opacity="0.7" stroke-width="7"/>
</svg>
