<svg width="377" height="467" viewBox="0 0 377 467" fill="none" xmlns="http://www.w3.org/2000/svg">
<path d="M356.761 388.762L356.803 387.965C358.138 362.627 359.47 333.255 359.47 299.208C359.47 276.504 358.804 255.145 358.135 236.48L357.961 231.644L354.117 234.584C337.603 247.216 309.263 257.124 275.128 263.853C241.085 270.564 201.612 274.051 163.109 274.051C124.605 274.051 85.1307 270.564 51.0875 263.853C16.9519 257.124 -11.3875 247.216 -27.9002 234.584L-31.7509 231.638L-31.9177 236.484C-32.5827 255.808 -33.2533 276.504 -33.2533 299.208C-33.2533 333.216 -32.5883 362.61 -30.5815 388.03L-30.5254 388.74L-30.1035 389.314C-25.5796 395.468 -17.3984 401.267 -6.42438 406.518C4.60812 411.798 18.7073 416.637 35.3493 420.746C68.6382 428.965 112.312 434.312 162.442 434.313L356.761 388.762ZM356.761 388.762L356.264 389.387M356.761 388.762L356.264 389.387M356.264 389.387C351.417 395.493 343.018 401.275 331.856 406.525C320.642 411.8 306.423 416.638 289.698 420.747C256.246 428.965 212.574 434.312 162.447 434.313L356.264 389.387ZM-4.80109 35.8119C-14.2954 42.1791 -20.4517 49.215 -22.8849 56.8082H-22.3288L-23.7739 60.271C-26.9289 67.8313 -48.8963 130.774 -48.2278 299.191V299.201C-48.2278 476.322 -23.5851 536.494 -22.5114 538.639L-22.4829 538.696L-22.4573 538.754C-14.5667 556.755 5.89352 571.437 37.7154 581.606C69.4432 591.746 111.966 597.231 163.113 597.231C214.257 597.231 256.778 591.746 288.506 581.606C320.328 571.437 340.79 556.755 348.683 538.754L348.708 538.697L348.735 538.642C349.808 536.493 374.453 476.319 374.453 299.201C374.453 130.797 351.822 67.8506 348.664 60.2693L348.565 60.0294L348.516 59.7742C346.859 51.0412 340.394 43.0004 329.675 35.8119C318.98 28.6402 304.347 22.5234 286.994 17.5639C252.304 7.64963 207.248 2.5 162.438 2.5C117.628 2.5 72.5703 7.64963 37.8798 17.5639C20.5261 22.5234 5.89267 28.6402 -4.80109 35.8119ZM-15.8662 88.6889L-14.8542 84.6375L-11.7611 87.443C2.04892 99.9693 27.1412 109.691 58.2776 116.252C89.3035 122.79 125.933 126.11 162.438 126.11C228.995 126.11 272.668 116.318 299.626 106.601C313.105 101.742 322.412 96.8994 328.317 93.3027C331.27 91.5042 333.374 90.0162 334.725 88.992C335.4 88.4799 335.888 88.0834 336.2 87.8217C336.355 87.6909 336.468 87.5933 336.538 87.5313C336.573 87.5004 336.599 87.4777 336.615 87.463L336.638 87.4427L336.658 87.4243C336.665 87.4187 336.683 87.4022 336.697 87.391C336.733 87.3607 337.489 86.9378 338.302 86.7973V86.7948H338.317V86.7992C339.667 87.2046 340.631 88.3858 340.673 88.5028C340.687 88.5446 340.706 88.6081 340.712 88.63C340.722 88.6647 340.729 88.6928 340.73 88.7C340.736 88.7215 340.74 88.7412 340.743 88.7521C340.749 88.7774 340.756 88.8088 340.763 88.8426C340.779 88.912 340.801 89.0117 340.829 89.139C340.885 89.3947 340.967 89.7704 341.072 90.2568C341.281 91.2299 341.582 92.6494 341.953 94.4411C342.696 98.0243 343.718 103.099 344.845 109.072C347.096 121.008 349.769 136.566 351.446 150.979L351.602 152.322L350.563 153.188C338.114 163.566 314.664 173.502 282.739 180.859C250.72 188.237 209.892 193.083 162.431 193.083C120.314 193.083 80.3338 189.072 47.4133 182.117C14.6093 175.187 -11.5658 165.258 -25.7247 153.169L-26.742 152.3L-26.5838 150.972C-23.2407 122.901 -19.2255 102.138 -15.8662 88.6889ZM349.585 165.181L350.215 164.761H350.972H350.974H353.256L353.463 167.034C354.799 181.714 356.142 198.463 356.134 217.906L356.133 218.726L355.648 219.386C351.123 225.539 342.901 231.379 331.857 236.691C320.753 242.032 306.551 246.956 289.785 251.149C256.246 259.536 212.237 265.051 161.77 265.051C111.303 265.051 67.4602 259.537 34.0034 251.149C17.2775 246.957 3.09814 242.033 -8.03448 236.694C-19.113 231.38 -27.3974 225.548 -32.0804 219.424L-32.6555 218.671L-32.588 217.727C-31.2534 199.064 -29.9221 181.718 -28.5857 167.034L-28.2087 162.892L-24.7278 165.169C-7.79404 176.242 18.6595 185.492 51.1737 191.964C83.6359 198.424 121.942 202.077 162.438 202.077C203.603 202.077 242.077 198.424 274.453 191.964C306.883 185.493 332.994 176.245 349.585 165.181ZM334.669 532.658C334.668 532.659 334.668 532.659 332.332 531.77L334.668 532.659L334.639 532.735L334.606 532.809C328.838 545.423 313.024 557.724 285.4 566.879C257.666 576.07 217.574 582.249 162.449 582.249C107.324 582.249 67.0651 576.07 39.2477 566.879C12.6671 558.097 -3.01831 546.403 -9.03217 534.27H-9.93851V532.063C-9.9675 531.967 -10.0073 531.84 -10.0604 531.674C-10.1274 531.464 -10.2085 531.215 -10.3054 530.916L-10.3476 530.786C-10.4626 530.432 -10.5959 530.021 -10.7458 529.552C-11.3467 527.674 -12.2098 524.893 -13.2611 521.108C-15.3633 513.537 -18.2112 501.971 -21.223 485.576L-22.1705 480.419L-17.5669 482.93C18.5321 502.622 86.6433 515.276 162.447 515.276C238.255 515.276 306.369 502.622 342.46 482.93L347.064 480.418L346.116 485.576C343.105 501.969 340.258 513.701 338.156 521.354C337.106 525.18 336.241 527.987 335.635 529.847C335.333 530.777 335.095 531.47 334.93 531.936C334.848 532.169 334.785 532.345 334.74 532.465C334.718 532.525 334.701 532.571 334.689 532.604L334.675 532.642L334.671 532.653L334.669 532.657L334.669 532.658ZM348.774 467.543L348.61 468.531L347.809 469.132C332.702 480.468 306.606 489.886 274.366 496.486C242.036 503.104 203.226 506.949 162.442 506.949C121.659 506.949 82.8509 503.105 50.5228 496.487C18.7591 489.984 -7.04108 480.747 -22.2483 469.633H-23.6573L-23.9215 467.43C-24.3655 463.73 -24.8432 459.891 -25.3398 455.901C-27.0727 441.976 -29.0349 426.209 -30.5926 408.038L-31.0435 402.778L-26.6884 405.762C-9.13446 417.792 19.2673 427.21 52.8936 433.604C86.4471 439.985 124.929 443.306 162.435 443.306C200.285 443.306 238.935 440.151 272.484 433.854C306.112 427.542 334.316 418.127 351.514 405.793L355.925 402.629L355.462 408.038C353.463 431.36 351.457 451.441 348.774 467.543ZM-8.60663 63.9722C-8.60663 60.949 -7.2388 58.0322 -5.03601 55.3353C-2.8269 52.6306 0.357452 49.9745 4.35657 47.4064C12.3593 42.2672 23.9885 37.2502 38.7263 32.8403C68.2319 24.0115 110.616 17.4925 162.438 17.4925C214.257 17.4925 256.642 24.0115 286.148 32.8403C300.886 37.2502 312.516 42.2672 320.519 47.4063C324.518 49.9745 327.703 52.6306 329.912 55.3352C332.115 58.0322 333.483 60.9489 333.483 63.9722C333.483 66.9953 332.115 69.9121 329.912 72.609C327.703 75.3137 324.519 77.9698 320.52 80.5379C312.517 85.6771 300.888 90.6941 286.15 95.1041C256.644 103.933 214.26 110.452 162.438 110.452C110.95 110.452 68.5671 103.932 38.9799 95.1046C24.2014 90.6952 12.511 85.6791 4.45746 80.5421C0.433105 77.9752 -2.7749 75.3204 -5.00183 72.6171C-7.22156 69.9225 -8.60663 67.003 -8.60663 63.9722Z" fill="#A12B4E" stroke="white" stroke-width="5"/>
<path d="M221.565 63.9731C221.565 64.5636 221.919 65.5453 223.495 66.8126C225.044 68.0588 227.47 69.3162 230.774 70.431C237.356 72.6522 246.897 74.1317 258.37 74.1317C269.874 74.1317 279.417 72.8129 285.993 70.6736C289.293 69.6002 291.696 68.3677 293.226 67.1111C294.746 65.8628 295.176 64.7987 295.176 63.9731C295.176 63.3826 294.822 62.4009 293.246 61.1336C291.697 59.8874 289.271 58.6299 285.967 57.5152C279.385 55.294 269.844 53.8145 258.37 53.8145C246.556 53.8145 237.022 55.2947 230.532 57.5106C227.277 58.6223 224.921 59.8743 223.428 61.1096C221.922 62.3559 221.565 63.3414 221.565 63.9731Z" fill="#A12B4E" stroke="white" stroke-width="5"/>
</svg>
