<svg width="47" height="47" viewBox="0 0 47 47" fill="none" xmlns="http://www.w3.org/2000/svg">
<g clip-path="url(#clip0_571_11504)">
<path d="M23.148 12.8033C21.028 12.8033 18.9557 13.432 17.193 14.6097C15.4303 15.7875 14.0565 17.4616 13.2452 19.4202C12.4339 21.3787 12.2217 23.5339 12.6353 25.6131C13.0488 27.6924 14.0697 29.6023 15.5687 31.1013C17.0678 32.6003 18.9777 33.6212 21.0569 34.0348C23.1361 34.4484 25.2913 34.2361 27.2499 33.4248C29.2085 32.6135 30.8825 31.2397 32.0603 29.477C33.2381 27.7143 33.8667 25.642 33.8667 23.522C33.8635 20.6802 32.7332 17.9558 30.7237 15.9463C28.7143 13.9368 25.9898 12.8065 23.148 12.8033ZM23.148 31.4445C21.5811 31.4445 20.0493 30.9799 18.7465 30.1094C17.4436 29.2388 16.4282 28.0015 15.8285 26.5538C15.2289 25.1062 15.072 23.5132 15.3777 21.9764C15.6834 20.4396 16.4379 19.0279 17.5459 17.92C18.6539 16.812 20.0656 16.0574 21.6024 15.7517C23.1392 15.446 24.7322 15.6029 26.1798 16.2026C27.6275 16.8022 28.8648 17.8177 29.7353 19.1205C30.6059 20.4234 31.0705 21.9551 31.0705 23.522C31.0681 25.6225 30.2327 27.6362 28.7474 29.1214C27.2622 30.6067 25.2484 31.4421 23.148 31.4445ZM33.4007 0.686523H12.8953C9.55933 0.690347 6.36106 2.01726 4.00215 4.37617C1.64324 6.73508 0.316324 9.93335 0.3125 13.2694V33.7747C0.316324 37.1107 1.64324 40.309 4.00215 42.6679C6.36106 45.0268 9.55933 46.3537 12.8953 46.3575H33.4007C36.7367 46.3537 39.935 45.0268 42.2939 42.6679C44.6528 40.309 45.9797 37.1107 45.9835 33.7747V13.2694C45.9797 9.93335 44.6528 6.73508 42.2939 4.37617C39.935 2.01726 36.7367 0.690347 33.4007 0.686523ZM43.1873 33.7747C43.1844 36.3694 42.1524 38.857 40.3177 40.6917C38.483 42.5264 35.9954 43.5584 33.4007 43.5613H12.8953C10.3006 43.5584 7.81305 42.5264 5.97833 40.6917C4.1436 38.857 3.11158 36.3694 3.10868 33.7747V13.2694C3.11158 10.6747 4.1436 8.18707 5.97833 6.35235C7.81305 4.51763 10.3006 3.48561 12.8953 3.48271H33.4007C35.9954 3.48561 38.483 4.51763 40.3177 6.35235C42.1524 8.18707 43.1844 10.6747 43.1873 13.2694V33.7747ZM37.595 11.4052C37.595 11.8661 37.4583 12.3166 37.2023 12.6998C36.9462 13.083 36.5823 13.3816 36.1565 13.558C35.7307 13.7344 35.2622 13.7805 34.8102 13.6906C34.3582 13.6007 33.943 13.3788 33.6171 13.0529C33.2913 12.727 33.0693 12.3118 32.9794 11.8598C32.8895 11.4078 32.9357 10.9393 33.112 10.5135C33.2884 10.0877 33.587 9.72382 33.9702 9.46778C34.3534 9.21174 34.8039 9.07508 35.2648 9.07508C35.8826 9.07582 36.4748 9.32155 36.9117 9.75838C37.3485 10.1952 37.5942 10.7875 37.595 11.4052Z" fill="#A12B4E"/>
<path fill-rule="evenodd" clip-rule="evenodd" d="M12.8942 0.375977L33.3996 0.375977C36.818 0.379895 40.0957 1.73961 42.5129 4.15683C44.9302 6.57405 46.2899 9.85138 46.2938 13.2698V33.7756C46.2899 37.194 44.9302 40.4717 42.5129 42.8889C40.0957 45.3061 36.8184 46.6658 33.3999 46.6698H12.8942C9.47576 46.6658 6.19807 45.3061 3.78085 42.8889C1.36363 40.4717 0.00391837 37.1944 2.16539e-07 33.7759L0 13.2702C0.00391815 9.85174 1.36363 6.57405 3.78085 4.15683C6.19807 1.73961 9.47576 0.379895 12.8942 0.375977ZM12.8946 0.998763C9.64104 1.00249 6.52183 2.29661 4.22123 4.59721C1.92067 6.89776 0.626565 10.0169 0.622787 13.2704L0.622786 33.7752C0.626515 37.0287 1.92063 40.1479 4.22123 42.4485C6.52183 44.7491 9.64104 46.0433 12.8946 46.047H33.3992C36.6528 46.0433 39.772 44.7491 42.0726 42.4485C44.3732 40.1479 45.6673 37.0287 45.671 33.7752V13.2706C45.6673 10.017 44.3732 6.89781 42.0726 4.59721C39.772 2.29665 36.6529 1.00254 33.3994 0.998763L12.8946 0.998763ZM12.8942 3.17216L33.3996 3.17216C36.0767 3.17515 38.6437 4.23997 40.5368 6.13301C42.4298 8.02604 43.4946 10.5927 43.4976 13.2699V33.7756C43.4946 36.4527 42.4298 39.0197 40.5368 40.9127C38.6437 42.8058 36.0771 43.8706 33.3999 43.8736H12.8942C10.2171 43.8706 7.65007 42.8058 5.75703 40.9127C3.864 39.0197 2.79918 36.4531 2.79618 33.7759L2.79618 13.2702C2.79917 10.593 3.864 8.02604 5.75703 6.13301C7.65007 4.23997 10.2171 3.17515 12.8942 3.17216ZM33.3992 3.79495H12.8946C10.3823 3.79775 7.97382 4.79697 6.19741 6.57339C4.421 8.3498 3.42178 10.7583 3.41897 13.2705V33.7752C3.42178 36.2874 4.421 38.6959 6.19741 40.4724C7.97382 42.2488 10.3823 43.248 12.8946 43.2508H33.3992C35.9114 43.248 38.32 42.2488 40.0964 40.4724C41.8728 38.6959 42.872 36.2874 42.8748 33.7752V13.2705C42.872 10.7583 41.8728 8.3498 40.0964 6.57339C38.32 4.79697 35.9114 3.79775 33.3992 3.79495ZM35.2633 9.38732C34.8642 9.38738 34.474 9.50578 34.1421 9.72754C33.8101 9.94936 33.5514 10.2646 33.3986 10.6335C33.2458 11.0024 33.2058 11.4083 33.2837 11.7999C33.3616 12.1915 33.5539 12.5512 33.8362 12.8336C34.1185 13.1159 34.4783 13.3082 34.8699 13.386C35.2615 13.4639 35.6674 13.424 36.0362 13.2712C36.4051 13.1184 36.7204 12.8596 36.9422 12.5276C37.164 12.1958 37.2824 11.8056 37.2825 11.4064C37.2818 10.8711 37.0689 10.3579 36.6904 9.97941C36.3118 9.60089 35.7986 9.38796 35.2633 9.38732ZM37.9052 11.4057C37.9044 10.7055 37.6259 10.0342 37.1307 9.53904C36.6356 9.0439 35.9643 8.76537 35.2641 8.76453C34.7416 8.76453 34.2305 8.91945 33.7961 9.20971C33.3617 9.49997 33.0232 9.91252 32.8232 10.3952C32.6233 10.8779 32.571 11.409 32.6729 11.9214C32.7748 12.4338 33.0264 12.9045 33.3958 13.2739C33.7653 13.6434 34.2359 13.8949 34.7484 13.9969C35.2608 14.0988 35.7919 14.0465 36.2746 13.8465C36.7572 13.6466 37.1698 13.308 37.4601 12.8736C37.7503 12.4392 37.9052 11.9282 37.9052 11.4057ZM17.0189 14.3517C18.8328 13.1397 20.9653 12.4928 23.1469 12.4928C26.0712 12.4961 28.875 13.6592 30.9428 15.727C33.0106 17.7947 34.1737 20.5983 34.177 23.5225C34.177 25.7041 33.5301 27.837 32.3181 29.6509C31.1061 31.4648 29.3834 32.8785 27.3679 33.7134C25.3524 34.5482 23.1347 34.7666 20.995 34.341C18.8554 33.9154 16.89 32.8649 15.3474 31.3223C13.8049 29.7797 12.7543 27.8144 12.3287 25.6747C11.9031 23.5351 12.1216 21.3173 12.9564 19.3018C13.7913 17.2864 15.205 15.5637 17.0189 14.3517ZM23.1465 13.1156C21.0883 13.1156 19.0763 13.726 17.3649 14.8695C15.6534 16.0131 14.3195 17.6385 13.5318 19.5402C12.7441 21.4419 12.538 23.5344 12.9396 25.5532C13.3411 27.5721 14.3323 29.4265 15.7878 30.882C17.2433 32.3374 19.0977 33.3286 21.1165 33.7302C23.1354 34.1318 25.2279 33.9257 27.1296 33.138C29.0313 32.3503 30.6567 31.0163 31.8003 29.3049C32.9438 27.5935 33.5541 25.5815 33.5542 23.5232C33.5511 20.7639 32.4536 18.1185 30.5024 16.1673C28.5513 14.2162 25.9059 13.1187 23.1465 13.1156ZM26.0595 16.4911C24.6688 15.915 23.1385 15.7643 21.662 16.058C20.1856 16.3517 18.8295 17.0766 17.765 18.141C16.7006 19.2054 15.9757 20.5616 15.682 22.038C15.3883 23.5144 15.5391 25.0448 16.1151 26.4355C16.6912 27.8263 17.6667 29.015 18.9184 29.8513C20.1699 30.6876 21.6413 31.1339 23.1465 31.134C25.1645 31.1317 27.0992 30.329 28.5261 28.9021C29.9531 27.4752 30.7557 25.5405 30.758 23.5225C30.758 22.0173 30.3116 20.5459 29.4753 19.2944C28.639 18.0427 27.4503 17.0672 26.0595 16.4911ZM23.1473 31.7568C25.3302 31.7543 27.4229 30.886 28.9665 29.3425C30.51 27.7989 31.3783 25.7061 31.3808 23.5232C31.3808 21.8947 30.8979 20.3024 29.9931 18.9484C29.0884 17.5943 27.8024 16.5389 26.2979 15.9157C24.7933 15.2925 23.1378 15.1295 21.5405 15.4472C19.9433 15.7649 18.4762 16.5491 17.3246 17.7006C16.1731 18.8521 15.3889 20.3193 15.0712 21.9165C14.7535 23.5137 14.9165 25.1693 15.5398 26.6739C16.163 28.1784 17.2183 29.4644 18.5724 30.3691C19.9264 31.2739 21.5187 31.7568 23.1473 31.7568Z" fill="#A12B4E"/>
</g>
<defs>
<clipPath id="clip0_571_11504">
<rect width="46.2938" height="46.2938" fill="white" transform="translate(0 0.375977)"/>
</clipPath>
</defs>
</svg>
