<svg width="24" height="24" viewBox="0 0 24 24" fill="none" xmlns="http://www.w3.org/2000/svg">
<path d="M21.4311 15.335C20.7411 17.2844 19.4638 18.9721 17.775 20.1657C16.0863 21.3592 14.0691 22.0001 12.0011 22C7.64815 22 3.94414 19.218 2.57114 15.335C5.40574 17.0824 8.67123 18.0053 12.0011 18C15.4591 18 18.6891 17.025 21.4311 15.335ZM21.1271 7.905C21.775 9.34694 22.0705 10.9223 21.9891 12.501C19.1557 14.7713 15.6319 16.0058 12.0011 16C8.22315 16 4.75114 14.69 2.01314 12.5C1.93199 10.9216 2.22746 9.34663 2.87514 7.905C5.49161 9.91669 8.70073 11.005 12.0011 11C15.4351 11 18.5991 9.846 21.1271 7.905V7.905ZM12.0011 2C13.5867 1.99898 15.1497 2.37536 16.561 3.09803C17.9722 3.82071 19.1912 4.86892 20.1171 6.156C17.815 8.00119 14.9515 9.00459 12.0011 9C8.93115 9 6.10914 7.936 3.88514 6.156C4.8109 4.86874 6.02985 3.8204 7.44116 3.0977C8.85246 2.37501 10.4156 1.99873 12.0011 2V2Z" fill="#2C2C2C"/>
</svg>
