<svg width="20" height="14" viewBox="0 0 20 14" fill="none" xmlns="http://www.w3.org/2000/svg">
<path fill-rule="evenodd" clip-rule="evenodd" d="M19.4498 7.00066C19.4498 6.82164 19.3787 6.64995 19.2521 6.52336C19.1255 6.39677 18.9539 6.32566 18.7748 6.32566H2.85429L7.10274 2.07856C7.1655 2.0158 7.21528 1.94129 7.24924 1.8593C7.28321 1.7773 7.30069 1.68941 7.30069 1.60066C7.30069 1.5119 7.28321 1.42402 7.24924 1.34202C7.21528 1.26002 7.1655 1.18552 7.10274 1.12276C7.03998 1.06 6.96547 1.01022 6.88347 0.976251C6.80148 0.942286 6.71359 0.924805 6.62484 0.924805C6.53608 0.924805 6.4482 0.942286 6.3662 0.976251C6.2842 1.01022 6.20969 1.06 6.14694 1.12276L0.746936 6.52276C0.684076 6.58546 0.634203 6.65995 0.600174 6.74195C0.566146 6.82396 0.54863 6.91187 0.54863 7.00066C0.54863 7.08944 0.566146 7.17736 0.600174 7.25936C0.634203 7.34137 0.684076 7.41586 0.746936 7.47856L6.14694 12.8786C6.20969 12.9413 6.2842 12.9911 6.3662 13.0251C6.4482 13.059 6.53608 13.0765 6.62484 13.0765C6.71359 13.0765 6.80148 13.059 6.88347 13.0251C6.96547 12.9911 7.03998 12.9413 7.10274 12.8786C7.1655 12.8158 7.21528 12.7413 7.24924 12.6593C7.28321 12.5773 7.30069 12.4894 7.30069 12.4007C7.30069 12.3119 7.28321 12.224 7.24924 12.142C7.21528 12.06 7.1655 11.9855 7.10274 11.9228L2.85429 7.67566H18.7748C18.9539 7.67566 19.1255 7.60454 19.2521 7.47795C19.3787 7.35137 19.4498 7.17968 19.4498 7.00066Z" fill="white"/>
</svg>
