<svg width="22" height="17" viewBox="0 0 22 17" fill="none" xmlns="http://www.w3.org/2000/svg">
<path d="M19.2754 0.349609H3.52539C2.82943 0.350354 2.16218 0.627155 1.67006 1.11928C1.17794 1.6114 0.901135 2.27864 0.900391 2.97461V14.2246C0.901135 14.9206 1.17794 15.5878 1.67006 16.0799C2.16218 16.5721 2.82943 16.8489 3.52539 16.8496H19.2754C19.9714 16.8489 20.6386 16.5721 21.1307 16.0799C21.6228 15.5878 21.8996 14.9206 21.9004 14.2246V2.97461C21.8996 2.27864 21.6228 1.6114 21.1307 1.11928C20.6386 0.627155 19.9714 0.350354 19.2754 0.349609ZM18.6107 4.69164L11.8607 9.94164C11.7291 10.044 11.5671 10.0995 11.4004 10.0995C11.2337 10.0995 11.0717 10.044 10.9401 9.94164L4.19008 4.69164C4.11077 4.63175 4.04416 4.5567 3.99411 4.47084C3.94406 4.38498 3.91158 4.29003 3.89854 4.19151C3.8855 4.09299 3.89218 3.99286 3.91817 3.89694C3.94417 3.80102 3.98897 3.71123 4.04997 3.63277C4.11097 3.55432 4.18695 3.48877 4.27351 3.43993C4.36006 3.3911 4.45545 3.35995 4.55415 3.3483C4.65284 3.33665 4.75287 3.34473 4.84841 3.37208C4.94396 3.39942 5.03311 3.44548 5.1107 3.50758L11.4004 8.39945L17.6901 3.50758C17.8474 3.38881 18.0451 3.33672 18.2404 3.36257C18.4358 3.38842 18.6132 3.49014 18.7341 3.64573C18.8551 3.80132 18.91 3.99827 18.8869 4.194C18.8638 4.38972 18.7646 4.56849 18.6107 4.69164Z" fill="#2C2C2C"/>
</svg>
