<svg width="14" height="18" viewBox="0 0 14 18" fill="none" xmlns="http://www.w3.org/2000/svg">
<g clip-path="url(#clip0_615_17744)">
<path d="M7.00781 1.78125C5.36736 1.78311 3.79462 2.4356 2.63464 3.59558C1.47467 4.75556 0.822173 6.32829 0.820312 7.96875C0.820312 13.2633 6.44531 17.2641 6.68438 17.4328C6.78018 17.4966 6.89271 17.5306 7.00781 17.5306C7.12291 17.5306 7.23544 17.4966 7.33125 17.4328C7.57031 17.2641 13.1953 13.2633 13.1953 7.96875C13.1935 6.32829 12.541 4.75556 11.381 3.59558C10.221 2.4356 8.64827 1.78311 7.00781 1.78125ZM7.00781 5.71875C7.45282 5.71875 7.88784 5.85071 8.25785 6.09794C8.62786 6.34518 8.91624 6.69658 9.08654 7.10771C9.25684 7.51884 9.3014 7.97124 9.21458 8.4077C9.12776 8.84416 8.91347 9.24507 8.5988 9.55974C8.28413 9.87441 7.88322 10.0887 7.44677 10.1755C7.01031 10.2623 6.55791 10.2178 6.14678 10.0475C5.73564 9.87718 5.38424 9.58879 5.13701 9.21878C4.88977 8.84877 4.75781 8.41376 4.75781 7.96875C4.75781 7.37201 4.99487 6.79972 5.41682 6.37776C5.83878 5.9558 6.41108 5.71875 7.00781 5.71875Z" fill="#A12B4E"/>
</g>
<defs>
<clipPath id="clip0_615_17744">
<rect width="13.5" height="16.875" fill="white" transform="translate(0.25 0.966797)"/>
</clipPath>
</defs>
</svg>
