<svg width="25" height="25" viewBox="0 0 25 25" fill="none" xmlns="http://www.w3.org/2000/svg">
<path fill-rule="evenodd" clip-rule="evenodd" d="M16.9514 22.7331C15.5114 22.6801 11.4304 22.1161 7.15641 17.8431C2.88341 13.5691 2.32041 9.48907 2.26641 8.04807C2.18641 5.85207 3.86841 3.71907 5.81141 2.88607C6.04539 2.78504 6.30162 2.74657 6.55494 2.77444C6.80827 2.80232 7.05 2.89558 7.25641 3.04507C8.85641 4.21107 9.96041 5.97507 10.9084 7.36207C11.117 7.6668 11.2062 8.03762 11.159 8.40387C11.1118 8.77012 10.9315 9.1062 10.6524 9.34807L8.70141 10.7971C8.60716 10.8651 8.54081 10.9651 8.51469 11.0784C8.48857 11.1917 8.50447 11.3106 8.55941 11.4131C9.00141 12.2161 9.78741 13.4121 10.6874 14.3121C11.5884 15.2121 12.8404 16.0501 13.6994 16.5421C13.8071 16.6025 13.9339 16.6194 14.0537 16.5893C14.1735 16.5592 14.2771 16.4843 14.3434 16.3801L15.6134 14.4471C15.8469 14.1369 16.1913 13.9291 16.5746 13.8673C16.9578 13.8054 17.3502 13.8942 17.6694 14.1151C19.0764 15.0891 20.7184 16.1741 21.9204 17.7131C22.082 17.921 22.1849 18.1685 22.2181 18.4297C22.2513 18.6909 22.2138 18.9563 22.1094 19.1981C21.2724 21.1511 19.1544 22.8141 16.9514 22.7331Z" fill="#2C2C2C"/>
</svg>
