<svg width="604" height="1276" viewBox="0 0 604 1276" fill="none" xmlns="http://www.w3.org/2000/svg">
<path d="M255.626 319.86C197.536 301.25 198.221 292.962 195.671 282.904C193.512 274.387 156.497 127.564 137.646 52.8557C141.886 50.1925 144.239 45.5293 143.124 41.1299L138.359 22.3323C137.247 17.9447 133.03 15.1422 128.126 15.0687L126.823 9.92828C126.823 9.92828 124.166 -10.1598 61.6924 7.53362L59.6803 8.10349C-2.80535 25.8004 4.40866 44.5978 4.40866 44.5978L5.71179 49.7383C1.50551 52.4173 -0.823656 57.0609 0.285645 61.4368L5.05096 80.2345C6.16621 84.6338 10.3829 87.4363 15.328 87.4982C34.357 162.156 71.7417 308.875 73.9006 317.391C76.4532 327.46 80.9518 334.268 39.4607 381.081C-2.03038 427.894 14.1234 480.56 14.1234 480.56C14.1234 480.56 162.774 1029.79 182.921 1110.42C203.058 1191.07 348.384 1142.73 348.384 1142.73C348.384 1142.73 497.1 1107.78 476.395 1027.31C455.7 946.838 324.625 392.634 324.625 392.634C324.639 392.63 313.688 338.493 255.621 319.861L255.626 319.86Z" fill="white"/>
<path d="M320.693 391.28C320.756 391.512 320.813 391.728 320.864 391.925L321.244 393.533L324.625 392.634C321.244 393.533 321.245 393.535 321.246 393.539L321.251 393.558L321.268 393.634L321.34 393.935L321.621 395.125L322.722 399.777C323.687 403.856 325.105 409.848 326.917 417.504C330.542 432.816 335.743 454.779 342.049 481.386C354.661 534.601 371.692 606.392 389.37 680.699C424.72 829.287 462.673 988.002 473.031 1028.28C477.891 1047.17 472.874 1063.32 462.389 1077.19C451.805 1091.19 435.664 1102.81 418.57 1112.1C401.521 1121.36 383.788 1128.17 370.285 1132.67C363.541 1134.91 357.872 1136.58 353.895 1137.68C351.906 1138.22 350.342 1138.63 349.28 1138.9C348.749 1139.04 348.343 1139.14 348.073 1139.21C347.948 1139.24 347.852 1139.26 347.786 1139.27L347.769 1139.28L347.696 1139.3L347.68 1139.3L347.676 1139.3L347.523 1139.34L347.373 1139.39L347.369 1139.39L347.353 1139.39L347.281 1139.42C347.216 1139.44 347.117 1139.47 346.984 1139.51C346.719 1139.6 346.32 1139.73 345.796 1139.89C344.748 1140.22 343.2 1140.69 341.219 1141.27C337.254 1142.42 331.558 1143.97 324.656 1145.59C310.835 1148.84 292.258 1152.31 273.11 1153.3C253.913 1154.29 234.439 1152.76 218.649 1146.22C203.007 1139.75 191.018 1128.41 186.292 1109.48L183.228 1110.33L186.292 1109.48C176.208 1069.12 133.996 911.612 94.3214 764.249C74.4805 690.554 55.2693 619.38 41.0184 566.63C33.8929 540.255 28.0075 518.485 23.9034 503.309C21.8513 495.722 20.2446 489.782 19.1509 485.74L17.9036 481.13L17.5843 479.95L17.5036 479.652L17.4833 479.577L17.4782 479.558C17.4771 479.554 17.4765 479.552 14.1234 480.56L17.4765 479.552L17.4613 479.496L17.4455 479.444L17.4452 479.443L17.4451 479.443L17.4443 479.44L17.4405 479.427C17.4354 479.41 17.4267 479.381 17.4146 479.339C17.3905 479.256 17.3528 479.123 17.3037 478.943C17.2057 478.583 17.0624 478.034 16.8918 477.309C16.5504 475.86 16.1001 473.712 15.6824 470.978C14.8466 465.508 14.1458 457.718 14.7018 448.506C15.8123 430.11 21.927 406.073 42.0206 383.402C62.7681 359.993 72.3859 346.199 76.384 336.785C78.4306 331.966 79.0645 328.166 78.9023 324.754C78.7752 322.078 78.1352 319.693 77.5955 317.68C77.4797 317.249 77.3684 316.834 77.2679 316.437C75.1083 307.918 37.7227 161.196 18.6943 86.5401L18.0486 84.0069L15.4542 83.9744C11.6781 83.9272 9.06749 81.8416 8.4183 79.2808L3.65299 60.4831C3.01067 57.9494 4.2829 54.7646 7.50931 52.7097L9.71763 51.3032L9.07913 48.7846L7.77601 43.6442L7.72528 43.4441L7.69325 43.3606C7.68579 43.327 7.67436 43.2692 7.66328 43.1884C7.62994 42.9452 7.59797 42.4812 7.69494 41.8222C7.8833 40.5423 8.59692 38.2708 11.1955 35.281C16.5053 29.172 29.5024 20.2864 60.5403 11.496L62.5524 10.9261C93.5839 2.13752 109.043 2.96369 116.533 5.44791C120.199 6.66374 121.893 8.25379 122.663 9.26305C123.059 9.78261 123.251 10.2015 123.338 10.4298C123.366 10.5056 123.384 10.5617 123.393 10.5948L123.405 10.683L123.455 10.882L124.758 16.0224L125.4 18.5535L127.991 18.5923C131.728 18.6483 134.344 20.7326 134.992 23.286L139.757 42.0836C140.403 44.6341 139.115 47.8323 135.868 49.8723L133.639 51.2724L134.278 53.8056C143.614 90.8048 157.406 145.495 169.212 192.313C181.244 240.023 191.214 279.557 192.304 283.857C192.405 284.255 192.505 284.673 192.609 285.11C193.092 287.134 193.666 289.536 194.819 291.918C196.292 294.959 198.637 297.916 202.688 301.009C209.547 306.244 221.618 312.099 243.62 319.624L243.442 319.674L254.501 323.223C282.622 332.247 299.293 349.834 308.961 365.18C313.802 372.864 316.882 379.98 318.747 385.159C319.678 387.747 320.304 389.845 320.693 391.28Z" stroke="#A12B4E" stroke-opacity="0.7" stroke-width="7"/>
</svg>
