<svg width="20" height="14" viewBox="0 0 20 14" fill="none" xmlns="http://www.w3.org/2000/svg">
<path fill-rule="evenodd" clip-rule="evenodd" d="M0.550163 7.00066C0.550163 6.82164 0.621279 6.64995 0.747866 6.52336C0.874453 6.39677 1.04614 6.32566 1.22516 6.32566H17.1457L12.8973 2.07856C12.8345 2.0158 12.7847 1.94129 12.7508 1.8593C12.7168 1.7773 12.6993 1.68941 12.6993 1.60066C12.6993 1.5119 12.7168 1.42402 12.7508 1.34202C12.7847 1.26002 12.8345 1.18552 12.8973 1.12276C12.96 1.06 13.0345 1.01022 13.1165 0.976251C13.1985 0.942286 13.2864 0.924805 13.3752 0.924805C13.4639 0.924805 13.5518 0.942286 13.6338 0.976251C13.7158 1.01022 13.7903 1.06 13.8531 1.12276L19.2531 6.52276C19.3159 6.58546 19.3658 6.65995 19.3998 6.74195C19.4339 6.82396 19.4514 6.91187 19.4514 7.00066C19.4514 7.08944 19.4339 7.17736 19.3998 7.25936C19.3658 7.34137 19.3159 7.41586 19.2531 7.47856L13.8531 12.8786C13.7903 12.9413 13.7158 12.9911 13.6338 13.0251C13.5518 13.059 13.4639 13.0765 13.3752 13.0765C13.2864 13.0765 13.1985 13.059 13.1165 13.0251C13.0345 12.9911 12.96 12.9413 12.8973 12.8786C12.8345 12.8158 12.7847 12.7413 12.7508 12.6593C12.7168 12.5773 12.6993 12.4894 12.6993 12.4007C12.6993 12.3119 12.7168 12.224 12.7508 12.142C12.7847 12.06 12.8345 11.9855 12.8973 11.9228L17.1457 7.67566H1.22516C1.04614 7.67566 0.874453 7.60454 0.747866 7.47795C0.621279 7.35137 0.550163 7.17968 0.550163 7.00066Z" fill="white"/>
</svg>
