<svg width="28" height="28" viewBox="0 0 28 28" fill="none" xmlns="http://www.w3.org/2000/svg">
<path fill-rule="evenodd" clip-rule="evenodd" d="M27.9988 13.6C27.9988 21.1106 21.9094 27.2 14.3988 27.2C6.88823 27.2 0.798828 21.1106 0.798828 13.6C0.798828 6.0894 6.88823 0 14.3988 0C21.9094 0 27.9988 6.0894 27.9988 13.6ZM14.8862 10.0402C13.5636 10.5899 10.9195 11.7289 6.95509 13.4561C6.31136 13.7122 5.97363 13.9627 5.94303 14.2075C5.89089 14.6223 6.40996 14.7855 7.11489 15.0065C7.21123 15.0371 7.31096 15.0677 7.41296 15.1017C8.10769 15.3272 9.04156 15.5913 9.52663 15.6015C9.96749 15.6105 10.4594 15.4292 11.0022 15.0575C14.706 12.5562 16.6179 11.2925 16.738 11.2653C16.823 11.2461 16.9409 11.2211 17.0202 11.2925C17.0996 11.3628 17.0916 11.4965 17.0837 11.5328C17.0316 11.7515 14.9984 13.6431 13.9444 14.6223C13.6157 14.9271 13.3834 15.1436 13.3358 15.1935C13.2292 15.3034 13.1204 15.4088 13.0162 15.5097C12.3702 16.1307 11.8874 16.5977 13.0434 17.3593C13.5987 17.7253 14.043 18.0279 14.4861 18.3294C14.97 18.6592 15.4528 18.9879 16.0784 19.3981C16.2371 19.5024 16.389 19.6101 16.5374 19.7155C17.1007 20.1178 17.6073 20.4782 18.2329 20.4215C18.5956 20.3875 18.9718 20.0464 19.1622 19.0275C19.6122 16.6181 20.4984 11.4002 20.7036 9.24913C20.716 9.07054 20.7084 8.8911 20.6809 8.7142C20.6644 8.57132 20.5948 8.43986 20.486 8.34587C20.3239 8.21327 20.0723 8.18493 19.959 8.1872C19.4478 8.19627 18.6636 8.4694 14.8862 10.0402Z" fill="#3F3F3F"/>
</svg>
