<svg width="26" height="26" viewBox="0 0 26 26" fill="none" xmlns="http://www.w3.org/2000/svg">
<path fill-rule="evenodd" clip-rule="evenodd" d="M2.19111 18.7487C1.11411 16.8975 0.547712 14.7973 0.548312 12.6465H0.548413C0.551213 5.91663 6.07111 0.441406 12.8534 0.441406C16.1452 0.442895 19.2347 1.71406 21.5577 4.02104C23.8811 6.32822 25.1599 9.39486 25.1586 12.6561C25.1557 19.3862 19.6354 24.8617 12.8539 24.8617H12.8485C10.7943 24.8616 8.77274 24.3509 6.96851 23.3763L0.445312 25.0735L2.19111 18.7487ZM8.95331 6.81094C9.18021 6.82017 9.43131 6.83079 9.66991 7.35698V7.35708C9.8326 7.71602 10.1061 8.38453 10.3245 8.91843C10.4863 9.31388 10.6178 9.63549 10.6518 9.70275C10.7313 9.86082 10.7845 10.0454 10.6782 10.2563C10.6622 10.2881 10.6474 10.3181 10.6332 10.3467C10.5536 10.508 10.4951 10.6266 10.3602 10.7833C10.3068 10.8451 10.2516 10.9117 10.1964 10.9783C10.0869 11.1105 9.97737 11.2426 9.88221 11.3368C9.72251 11.4943 9.55661 11.6655 9.74241 11.9814C9.92821 12.2979 10.5674 13.3323 11.5142 14.1699C12.5314 15.0697 13.4149 15.4503 13.8637 15.6436C13.9518 15.6815 14.0232 15.7123 14.0755 15.7383C14.3939 15.8964 14.5798 15.8701 14.7655 15.6588C14.9514 15.4481 15.5613 14.7364 15.7737 14.4205C15.9861 14.1041 16.1984 14.1567 16.4904 14.262C16.7823 14.3675 18.3481 15.132 18.6667 15.2901C18.7287 15.3208 18.7867 15.3486 18.8405 15.3744C19.0629 15.4808 19.2131 15.5528 19.2772 15.6588C19.3568 15.791 19.3568 16.4234 19.0913 17.1613C18.826 17.8992 17.5256 18.6109 16.9416 18.6634C16.8855 18.6685 16.8297 18.675 16.7723 18.6817C16.2327 18.7448 15.5516 18.8244 13.1198 17.8729C10.1284 16.7024 8.1559 13.8019 7.74789 13.2019C7.71437 13.1526 7.6914 13.1189 7.67931 13.1029L7.67585 13.0983C7.50442 12.871 6.37891 11.3785 6.37891 9.83442C6.37891 8.37926 7.09967 7.61641 7.43142 7.2653C7.45412 7.24127 7.475 7.21917 7.49371 7.19891C7.78541 6.88288 8.13051 6.8036 8.34291 6.8036C8.35676 6.8036 8.37061 6.8036 8.38445 6.80359C8.58272 6.80356 8.77963 6.80352 8.95331 6.81094Z" fill="#3F3F3F"/>
</svg>
