<svg width="18" height="18" viewBox="0 0 18 18" fill="none" xmlns="http://www.w3.org/2000/svg">
<path fill-rule="evenodd" clip-rule="evenodd" d="M12.7925 17.4442C11.5925 17.4001 8.19169 16.9301 4.63002 13.3692C1.06919 9.80756 0.600019 6.40756 0.555019 5.20672C0.488353 3.37672 1.89002 1.59922 3.50919 0.905058C3.70417 0.820863 3.91769 0.788808 4.12879 0.812037C4.3399 0.835266 4.54134 0.912982 4.71335 1.03756C6.04669 2.00922 6.96669 3.47922 7.75669 4.63506C7.93051 4.889 8.00483 5.19801 7.96548 5.50322C7.92614 5.80843 7.77589 6.0885 7.54335 6.29006L5.91752 7.49756C5.83897 7.55428 5.78368 7.63758 5.76192 7.73199C5.74015 7.8264 5.7534 7.92551 5.79919 8.01089C6.16752 8.68006 6.82252 9.67672 7.57252 10.4267C8.32335 11.1767 9.36669 11.8751 10.0825 12.2851C10.1723 12.3354 10.2779 12.3495 10.3777 12.3244C10.4775 12.2993 10.564 12.2369 10.6192 12.1501L11.6775 10.5392C11.8721 10.2808 12.1591 10.1076 12.4785 10.056C12.7979 10.0045 13.1248 10.0785 13.3909 10.2626C14.5634 11.0742 15.9317 11.9784 16.9334 13.2609C17.068 13.4341 17.1537 13.6404 17.1814 13.8581C17.2091 14.0758 17.1779 14.2969 17.0909 14.4984C16.3934 16.1259 14.6284 17.5117 12.7925 17.4442Z" fill="#2C2C2C"/>
</svg>
