<svg width="543" height="640" viewBox="0 0 543 640" fill="none" xmlns="http://www.w3.org/2000/svg">
<g opacity="0.7">
<path d="M73.4844 117.622V117.621C73.4844 55.586 123.963 5.08887 186.007 5.08887C248.025 5.08887 298.511 55.5739 298.511 117.621C298.511 179.67 248.038 230.173 186.007 230.173C123.963 230.173 73.4779 179.677 73.4844 117.622ZM278.528 117.625C278.528 66.5992 237.023 25.0825 186.007 25.0825C134.966 25.0825 93.4674 66.5988 93.4674 117.625C93.4674 168.669 134.978 210.186 186.007 210.186C237.024 210.186 278.528 168.663 278.528 117.625Z" fill="#A12B4E" stroke="white"/>
<path d="M563.609 256.592H563.722L563.836 256.587C564.748 256.541 577.937 256.084 592.858 262.496C607.539 268.804 624.079 281.817 632.309 309.114L632.314 309.147L632.413 309.462C633.012 311.373 633.787 316.185 632.773 326.6C631.767 336.938 629.03 352.497 622.893 375.711L622.887 375.732L622.882 375.753L573.637 569.571C570.997 574.242 547.863 612.046 491.145 612.046H490.741C487.194 612.046 469.333 611.666 450.846 604.823C432.419 598.003 413.981 585.032 407.753 560.105L407.75 560.092L365.766 394.135L357.028 394.184C355.937 398.713 354.759 403.406 353.414 408.48L353.406 408.507L353.4 408.534L290.087 659.916L289.523 660.976L289.517 660.987L289.51 660.999C288.591 662.751 259.974 715.493 183.961 715.493H183.421C178.88 715.493 156.184 715.018 132.695 706.412C109.258 697.826 85.6785 681.426 77.7942 649.865L77.7909 649.852L15.4179 403.289L15.3836 403.153L15.3411 403.02C14.0685 399.045 9.4131 383.771 6.86633 365.476C4.29895 347.034 4.00373 326.365 10.7016 311.046C11.4498 309.505 18.2587 295.947 31.7128 282.723C45.354 269.314 65.5941 256.458 93.1986 256.458H278.896H279.005L279.114 256.453C280.921 256.365 325.53 254.974 352.241 294.303L356.129 300.029L359.784 294.151C367.335 282.01 387.292 256.592 421.808 256.592H563.609ZM334.053 403.474L334.121 403.202C348.177 349.943 347.065 332.393 346.668 329.201L346.62 328.81L346.504 328.434C339.184 304.62 325.771 291.468 312.499 284.37C299.37 277.349 286.687 276.411 280.806 276.411H280.751L280.696 276.412L279.106 276.451H93.1884C71.4342 276.451 55.3382 287.262 44.8317 297.805C34.3439 308.33 29.0911 318.904 28.8722 319.357L28.8362 319.432L28.8031 319.507C26.3181 325.171 25.3038 332.127 25.1074 339.282C24.9095 346.496 25.537 354.24 26.5592 361.671C28.5943 376.465 32.2512 390.422 34.4589 397.223L34.6869 398.009L97.1672 644.969C97.1679 644.972 97.1685 644.974 97.1691 644.977C103.437 670.045 123.874 682.614 142.651 688.88C157.286 693.765 171.529 695.054 178.913 695.386V705.492L187.912 705.584L188.119 695.428C242.494 693.716 266.279 660.62 270.943 653.152L271.317 652.552L271.49 651.867L334.053 403.474ZM555.866 560L603.524 370.765L603.527 370.765C613.74 332.102 613.435 318.329 613.184 315.284L613.143 314.785L612.993 314.307C607.608 297.128 597.861 287.55 588.171 282.367C578.62 277.258 569.432 276.575 565.152 276.575H565.103L565.055 276.576L563.85 276.602H421.807C405.861 276.602 394.077 284.586 386.442 292.277C382.614 296.133 379.752 299.986 377.834 302.895C376.873 304.353 376.142 305.584 375.64 306.474C375.389 306.919 375.194 307.28 375.057 307.541C374.921 307.798 374.83 307.981 374.84 307.961L374.779 308.081L374.725 308.204C372.982 312.179 372.286 317.09 372.14 322.088C371.991 327.155 372.4 332.669 373.102 338.059C374.499 348.78 377.111 359.41 379.173 365.762L379.401 366.555L427.121 555.218C427.121 555.218 427.122 555.219 427.122 555.22C431.826 574.05 448.044 583.145 462.082 587.534C476.243 591.961 489.521 592.06 490.727 592.06H490.909C532.697 592.06 551.192 567.687 555.284 561.34L555.686 560.718L555.866 560Z" fill="#A12B4E" stroke="white"/>
<path d="M581.047 152.894C581.047 201.593 541.42 241.236 492.714 241.236C444.022 241.236 404.395 201.594 404.395 152.894C404.395 104.18 444.016 64.5381 492.714 64.5381C541.413 64.5381 581.047 104.174 581.047 152.894ZM561.057 152.887C561.057 115.191 530.411 84.5282 492.714 84.5282C455.037 84.5282 424.385 115.191 424.385 152.887C424.385 190.569 455.023 221.232 492.714 221.232C530.402 221.232 561.057 190.585 561.057 152.887Z" fill="#A12B4E" stroke="white"/>
</g>
</svg>
