<svg width="694" height="1221" viewBox="0 0 694 1221" fill="none" xmlns="http://www.w3.org/2000/svg">
<path d="M339.954 448.228C295.773 428.729 296.247 422.091 294.256 413.776C292.571 406.735 263.669 285.367 248.95 223.61C252.152 221.787 253.912 218.204 253.041 214.567L249.321 199.026C248.453 195.399 245.237 192.812 241.516 192.375L240.499 188.125C240.499 188.125 238.371 171.705 191.066 181.172L189.542 181.477C142.227 190.946 147.805 206.675 147.805 206.675L148.823 210.925C145.646 212.763 143.905 216.332 144.771 219.95L148.491 235.49C149.361 239.127 152.577 241.715 156.329 242.146C171.183 303.876 200.365 425.188 202.05 432.229C204.043 440.554 207.494 446.395 176.271 480.985C145.049 515.575 157.598 559.331 157.598 559.331C157.598 559.331 273.443 1014.12 289.178 1080.76C304.905 1147.41 414.907 1119.6 414.907 1119.6C414.907 1119.6 527.557 1102.84 511.399 1036.3C495.249 969.743 392.713 512.289 392.713 512.289C392.724 512.287 384.114 467.744 339.95 448.228L339.954 448.228Z" fill="white"/>
<path d="M391.036 512.599L392.713 512.289C391.036 512.599 391.036 512.601 391.037 512.604L391.041 512.62L391.055 512.683L391.11 512.931L391.331 513.914L392.192 517.753C392.947 521.12 394.056 526.066 395.474 532.386C398.309 545.024 402.377 563.154 407.31 585.117C417.175 629.044 430.497 688.306 444.323 749.648C471.974 872.321 501.649 1003.34 509.729 1036.64C513.639 1052.74 509.772 1065.77 501.749 1076.35C493.681 1086.98 481.376 1095.18 468.419 1101.38C455.482 1107.57 442.02 1111.71 431.776 1114.3C426.658 1115.6 422.353 1116.5 419.331 1117.09C417.82 1117.38 416.631 1117.59 415.822 1117.73C415.417 1117.79 415.108 1117.84 414.901 1117.88C414.797 1117.89 414.719 1117.91 414.668 1117.91L414.611 1117.92L414.598 1117.92L414.595 1117.92C414.595 1117.92 414.595 1117.92 414.659 1118.27L414.595 1117.92L414.51 1117.94L414.427 1117.96L414.526 1118.3C414.427 1117.96 414.427 1117.96 414.427 1117.96L414.424 1117.96L414.411 1117.96L414.355 1117.98C414.305 1117.99 414.229 1118.01 414.127 1118.03C413.924 1118.08 413.62 1118.15 413.221 1118.25C412.424 1118.43 411.247 1118.69 409.741 1119.01C406.73 1119.63 402.404 1120.45 397.162 1121.23C386.668 1122.79 372.546 1124.17 357.964 1123.48C343.36 1122.8 328.436 1120.06 316.245 1113.47C304.123 1106.92 294.657 1096.56 290.851 1080.43C282.979 1047.09 250.079 916.717 219.154 794.7C203.69 733.685 188.717 674.754 177.611 631.075C172.058 609.236 167.471 591.211 164.273 578.645C162.674 572.362 161.421 567.444 160.569 564.096L159.597 560.279L159.348 559.302L159.285 559.055L159.27 558.993L159.266 558.978C159.265 558.974 159.264 558.972 157.598 559.331C159.251 558.923 159.251 558.923 159.251 558.924L159.251 558.923L159.25 558.921L159.245 558.902C159.24 558.885 159.233 558.857 159.222 558.819C159.202 558.743 159.17 558.626 159.13 558.47C159.05 558.158 158.935 557.688 158.798 557.074C158.524 555.846 158.163 554.042 157.825 551.765C157.15 547.209 156.566 540.771 156.943 533.27C157.695 518.268 162.278 499.077 177.573 482.132C193.19 464.831 200.307 454.543 203.214 447.435C204.687 443.831 205.1 441 204.97 438.467C204.866 436.455 204.412 434.65 203.993 432.987C203.899 432.616 203.807 432.252 203.722 431.894C202.036 424.852 172.854 303.539 158.001 241.809L157.712 240.608L156.471 240.466C153.385 240.111 150.845 238.006 150.163 235.156L146.442 219.615C145.765 216.787 147.111 213.907 149.731 212.391L150.78 211.783L150.495 210.59L149.477 206.34L149.456 206.252L149.434 206.19C149.434 206.189 149.434 206.188 149.433 206.187C149.431 206.178 149.427 206.165 149.422 206.146C149.407 206.086 149.383 205.974 149.362 205.816C149.319 205.5 149.29 204.998 149.377 204.345C149.549 203.059 150.185 201.091 152.244 198.761C156.407 194.048 166.404 187.845 189.939 183.135L191.462 182.83C214.992 178.121 226.91 179.939 232.847 182.631C235.782 183.961 237.261 185.506 238.005 186.609C238.383 187.169 238.586 187.636 238.692 187.939C238.745 188.091 238.774 188.202 238.788 188.263C238.793 188.284 238.796 188.299 238.797 188.307L238.806 188.372L238.827 188.459L239.844 192.709L240.131 193.909L241.37 194.054C244.426 194.413 246.969 196.518 247.649 199.361L251.369 214.902C252.05 217.747 250.69 220.637 248.052 222.138L246.991 222.742L247.278 223.943C254.566 254.523 265.332 299.722 274.55 338.417C283.946 377.866 291.733 410.556 292.584 414.111C292.67 414.469 292.753 414.836 292.838 415.21C293.216 416.878 293.627 418.69 294.451 420.555C295.489 422.905 297.156 425.321 300.141 428.033C305.581 432.976 315.527 439.012 334.438 447.594L334.393 447.603L339.291 449.768C360.926 459.328 373.862 475.017 381.402 488.359C385.172 495.031 387.585 501.103 389.053 505.501C389.787 507.699 390.284 509.475 390.595 510.695C390.647 510.899 390.694 511.087 390.736 511.259L391.036 512.599Z" stroke="#799A60" stroke-opacity="0.1" stroke-width="3.40993"/>
<path d="M330.837 394.541C283.998 375.094 284.371 368.022 282.121 359.237C280.215 351.799 247.529 223.578 230.884 158.334C234.218 156.302 236.001 152.441 235.017 148.599L230.811 132.181C229.83 128.349 226.399 125.692 222.476 125.335L221.326 120.846C221.326 120.846 218.779 103.447 169.198 114.894L167.601 115.262C118.011 126.711 124.175 143.275 124.175 143.275L125.325 147.765C122.018 149.812 120.253 153.658 121.232 157.48L125.438 173.897C126.422 177.74 129.853 180.397 133.808 180.746C150.595 245.957 183.574 374.11 185.48 381.548C187.733 390.343 191.473 396.454 159.282 434.147C127.092 471.841 141.116 518.005 141.116 518.005C141.116 518.005 271.533 998.255 289.339 1068.66C307.138 1139.08 422.322 1106.29 422.322 1106.29C422.322 1106.29 540.498 1085.19 522.25 1014.9C504.009 944.595 387.54 461.125 387.54 461.125C387.551 461.123 377.655 414.006 330.834 394.542L330.837 394.541Z" fill="white"/>
<path d="M385.873 461.485L387.54 461.125C385.873 461.485 385.873 461.487 385.874 461.49L385.878 461.507L385.894 461.573L385.958 461.836L386.208 462.874L387.185 466.932C388.043 470.49 389.303 475.718 390.913 482.397C394.134 495.754 398.754 514.914 404.356 538.126C415.56 584.55 430.689 647.181 446.388 712.01C477.783 841.655 511.465 980.118 520.59 1015.29C525.015 1032.33 521.183 1046.33 512.929 1057.83C504.631 1069.4 491.828 1078.48 478.311 1085.45C464.812 1092.41 450.725 1097.21 439.995 1100.27C434.634 1101.8 430.121 1102.89 426.952 1103.6C425.368 1103.95 424.12 1104.21 423.271 1104.38C422.847 1104.46 422.522 1104.52 422.305 1104.56C422.196 1104.59 422.114 1104.6 422.06 1104.61L422 1104.62L421.986 1104.62L421.983 1104.62C421.983 1104.62 421.982 1104.62 422.094 1105.18L421.982 1104.62L421.898 1104.64L421.815 1104.66L421.916 1104.99C421.815 1104.66 421.815 1104.66 421.815 1104.66L421.812 1104.66L421.798 1104.67L421.74 1104.68C421.687 1104.7 421.607 1104.72 421.5 1104.75C421.287 1104.81 420.969 1104.9 420.551 1105.01C419.714 1105.22 418.481 1105.54 416.903 1105.92C413.745 1106.67 409.209 1107.67 403.708 1108.65C392.696 1110.61 377.862 1112.49 362.502 1112.19C347.123 1111.89 331.357 1109.4 318.391 1102.75C305.494 1096.13 295.318 1085.36 291.002 1068.28L289.339 1068.66L291.002 1068.28C282.094 1033.06 245.033 895.379 210.206 766.525C192.791 702.093 175.932 639.862 163.427 593.738C157.175 570.676 152.011 551.641 148.41 538.372C146.61 531.737 145.2 526.544 144.24 523.009L143.146 518.978L142.866 517.947L142.795 517.686L142.777 517.62L142.773 517.604C142.772 517.6 142.771 517.598 141.116 518.005L142.771 517.598L142.765 517.574L142.757 517.55L142.757 517.549L142.756 517.546L142.75 517.527C142.745 517.508 142.736 517.479 142.725 517.438C142.701 517.358 142.666 517.234 142.621 517.068C142.531 516.737 142.4 516.24 142.244 515.59C141.932 514.29 141.518 512.379 141.12 509.965C140.322 505.133 139.587 498.297 139.841 490.301C140.351 474.309 144.815 453.742 160.602 435.258C176.703 416.404 183.985 405.267 186.903 397.64C188.38 393.777 188.757 390.769 188.574 388.098C188.429 385.973 187.92 384.08 187.448 382.324C187.342 381.931 187.239 381.545 187.141 381.165C185.235 373.726 152.255 245.571 135.469 180.361L135.162 179.166L133.925 179.057C130.64 178.767 127.884 176.578 127.099 173.514L122.893 157.096C122.114 154.055 123.502 150.912 126.256 149.207L127.29 148.567L126.986 147.381L125.836 142.891L125.813 142.804L125.79 142.741C125.787 142.732 125.782 142.714 125.775 142.687C125.757 142.62 125.728 142.498 125.702 142.326C125.65 141.982 125.61 141.439 125.69 140.733C125.849 139.338 126.49 137.209 128.622 134.659C132.931 129.503 143.352 122.61 168.024 116.914L169.621 116.545C194.288 110.85 206.88 112.431 213.203 115.132C216.332 116.468 217.933 118.079 218.749 119.249C219.163 119.842 219.39 120.342 219.51 120.669C219.57 120.833 219.604 120.954 219.62 121.022C219.627 121.049 219.631 121.067 219.633 121.077L219.642 121.142L219.665 121.229L220.815 125.719L221.12 126.912L222.355 127.024C225.609 127.32 228.367 129.509 229.15 132.565L233.356 148.983C234.14 152.042 232.735 155.195 229.962 156.886L228.918 157.522L229.222 158.716C237.466 191.031 249.646 238.796 260.072 279.683C270.695 321.345 279.498 355.866 280.46 359.621C280.557 360.002 280.652 360.391 280.749 360.787C281.178 362.549 281.641 364.451 282.538 366.399C283.666 368.852 285.455 371.36 288.637 374.149C294.467 379.26 305.105 385.419 325.347 394.059L325.306 394.069L330.198 396.103C353.16 405.648 367.079 421.974 375.27 435.958C379.366 442.951 382.022 449.344 383.651 453.983C384.465 456.302 385.021 458.179 385.372 459.47C385.431 459.686 385.484 459.885 385.532 460.067L385.873 461.485ZM125.792 142.747C125.792 142.749 125.792 142.748 125.792 142.746L125.792 142.747Z" stroke="#799A60" stroke-opacity="0.2" stroke-width="3.40993"/>
<path d="M333.081 386.008C284.072 367.848 284.789 360.803 282.788 352.121C281.094 344.77 252.06 218.046 237.273 153.563C240.915 151.458 242.989 147.571 242.114 143.774L238.375 127.548C237.502 123.761 233.968 121.205 229.806 120.949L228.783 116.512C228.783 116.512 226.854 99.2685 173.534 111.91L171.816 112.317C118.485 124.961 124.303 141.283 124.303 141.283L125.325 145.72C121.711 147.84 119.658 151.711 120.529 155.488L124.268 171.713C125.144 175.511 128.677 178.067 132.874 178.315C147.813 242.761 177.162 369.411 178.856 376.762C180.859 385.453 184.568 391.438 148.584 429.749C112.601 468.06 125.458 513.629 125.458 513.629C125.458 513.629 242.711 988.073 258.503 1057.66C274.285 1127.26 398.437 1091.73 398.437 1091.73C398.437 1091.73 525.25 1067.75 508.982 998.286C492.724 928.81 390.471 450.81 390.471 450.81C390.482 450.807 382.067 404.187 333.078 386.009L333.081 386.008Z" fill="white"/>
<path d="M390.471 450.81L388.806 451.177L388.507 449.777C388.464 449.598 388.417 449.402 388.365 449.191C388.05 447.92 387.543 446.071 386.782 443.79C385.26 439.225 382.724 432.943 378.683 426.101C370.607 412.427 356.53 396.535 332.479 387.61L327.198 385.651L327.245 385.639C306.187 377.591 295.182 371.754 289.22 366.831C285.956 364.136 284.15 361.675 283.047 359.238C282.172 357.304 281.76 355.402 281.382 353.659C281.298 353.269 281.215 352.887 281.129 352.514C280.274 348.804 272.456 314.691 263.02 273.519C253.758 233.107 242.938 185.895 235.614 153.955L235.331 152.72L236.429 152.085C239.566 150.272 241.126 147.078 240.455 144.167L236.716 127.942C236.045 125.034 233.267 122.873 229.692 122.653L228.431 122.576L228.147 121.342L227.124 116.905L227.102 116.81L227.094 116.74C227.094 116.738 227.093 116.735 227.093 116.732C227.091 116.724 227.089 116.713 227.086 116.699C227.073 116.638 227.044 116.526 226.99 116.371C226.882 116.063 226.669 115.584 226.263 115.015C225.461 113.892 223.835 112.325 220.54 111.066C213.874 108.52 200.473 107.275 173.917 113.571L172.199 113.979C145.638 120.276 134.169 127.417 129.308 132.696C126.906 135.305 126.134 137.441 125.906 138.807C125.791 139.499 125.81 140.024 125.848 140.349C125.867 140.512 125.891 140.626 125.905 140.686C125.91 140.705 125.914 140.719 125.916 140.727L125.94 140.793L125.962 140.889L126.984 145.326L127.267 146.554L126.179 147.192C123.064 149.02 121.521 152.201 122.188 155.095L125.927 171.32C126.599 174.236 129.375 176.398 132.984 176.61L134.247 176.684L134.533 177.919C149.472 242.364 178.821 369.016 180.515 376.368C180.601 376.74 180.693 377.119 180.788 377.505C181.212 379.241 181.674 381.133 181.733 383.262C181.809 385.944 181.265 388.961 179.516 392.844C176.066 400.502 167.814 411.759 149.821 430.916C132.155 449.725 126.485 470.295 125.225 486.182C124.594 494.131 125.068 500.901 125.699 505.677C126.014 508.064 126.368 509.95 126.641 511.231C126.777 511.872 126.893 512.361 126.974 512.686C127.014 512.849 127.046 512.97 127.067 513.049C127.078 513.089 127.085 513.117 127.09 513.135L127.095 513.154L127.096 513.156L390.471 450.81ZM390.471 450.81C388.806 451.177 388.806 451.179 388.807 451.182L388.811 451.199L388.825 451.264L388.88 451.524L389.1 452.55L389.958 456.562C390.711 460.08 391.818 465.249 393.232 471.852C396.059 485.058 400.117 504.002 405.037 526.951C414.878 572.849 428.167 634.771 441.965 698.864C469.559 827.037 499.191 963.928 507.325 998.685C511.254 1015.46 506.573 1029.46 497.246 1041.13C487.87 1052.86 473.796 1062.24 459.064 1069.53C444.353 1076.81 429.115 1081.94 417.538 1085.26C411.754 1086.92 406.893 1088.12 403.482 1088.9C401.776 1089.29 400.434 1089.58 399.52 1089.77C399.392 1089.8 399.273 1089.83 399.162 1089.85C398.876 1089.91 398.648 1089.95 398.479 1089.99C398.362 1090.01 398.273 1090.03 398.215 1090.04L398.15 1090.05L398.134 1090.05L398.131 1090.05C398.13 1090.05 398.13 1090.05 398.437 1091.73M390.471 450.81L127.096 513.157L127.104 513.183L127.11 513.21L125.458 513.629C127.11 513.21 127.111 513.212 127.112 513.215L127.116 513.232L127.132 513.296L127.195 513.554L127.447 514.573L128.431 518.555C129.294 522.047 130.561 527.178 132.179 533.732C135.416 546.841 140.058 565.646 145.678 588.43C156.917 633.996 172.068 695.477 187.712 759.132C218.996 886.431 252.263 1022.46 260.163 1057.27C263.974 1074.08 274.287 1084.53 287.75 1090.8C301.284 1097.1 317.997 1099.18 334.388 1099.09C350.756 1099 366.659 1096.75 378.486 1094.52C384.395 1093.4 389.277 1092.29 392.678 1091.46C394.378 1091.05 395.708 1090.7 396.61 1090.46C397.062 1090.34 397.406 1090.25 397.636 1090.19C397.751 1090.15 397.838 1090.13 397.895 1090.11L397.959 1090.1L397.974 1090.09L397.978 1090.09C397.978 1090.09 397.978 1090.09 398.437 1091.73M398.437 1091.73L397.978 1090.09L398.053 1090.07L398.13 1090.05L398.437 1091.73Z" stroke="#799A60" stroke-opacity="0.3" stroke-width="3.40993"/>
<path d="M344.292 355.189C287.087 336.87 287.794 328.593 285.319 318.565C283.223 310.073 247.289 163.682 228.989 89.1935C233.18 86.5165 235.518 81.8514 234.435 77.4651L229.809 58.7228C228.729 54.3481 224.582 51.5694 219.747 51.5176L218.482 46.3923C218.482 46.3923 215.939 26.3528 154.272 44.2891L152.286 44.8668C90.6061 62.8067 97.647 81.538 97.647 81.538L98.9122 86.6633C94.7545 89.3559 92.44 94.0013 93.517 98.3643L98.1435 117.107C99.2262 121.493 103.373 124.272 108.249 124.312C126.725 198.749 163.023 345.035 165.119 353.526C167.597 363.566 172.007 370.341 130.916 417.251C89.8258 464.162 105.551 516.659 105.551 516.659C105.551 516.659 250.013 1064.23 269.568 1144.62C289.114 1225.03 432.592 1176.15 432.592 1176.15C432.592 1176.15 579.363 1140.6 559.256 1060.38C539.16 980.139 412.047 427.526 412.047 427.526C412.061 427.522 401.471 373.533 344.288 355.191L344.292 355.189Z" fill="white"/>
<path d="M408.139 426.202C408.2 426.435 408.255 426.65 408.305 426.846L408.674 428.449L412.047 427.526C408.674 428.449 408.674 428.451 408.675 428.455L408.679 428.474L408.697 428.55L408.766 428.85L409.039 430.037L410.106 434.675C411.042 438.742 412.417 444.718 414.175 452.352C417.69 467.619 422.734 489.519 428.849 516.05C441.08 569.112 457.598 640.697 474.743 714.79C509.028 862.95 545.84 1021.21 555.898 1061.37C560.619 1080.2 555.607 1096.35 545.222 1110.23C534.737 1124.24 518.784 1135.91 501.898 1145.25C485.056 1154.57 467.549 1161.44 454.219 1165.99C447.562 1168.26 441.967 1169.95 438.042 1171.06C436.08 1171.62 434.536 1172.03 433.488 1172.31C432.964 1172.44 432.564 1172.55 432.297 1172.61C432.164 1172.65 432.064 1172.67 431.998 1172.69L431.926 1172.7L431.91 1172.71L431.907 1172.71L431.752 1172.75L431.601 1172.8L431.598 1172.8L431.582 1172.8L431.512 1172.83C431.448 1172.85 431.35 1172.88 431.219 1172.93C430.957 1173.01 430.563 1173.14 430.046 1173.31C429.012 1173.64 427.484 1174.12 425.529 1174.7C421.616 1175.87 415.994 1177.44 409.184 1179.09C395.546 1182.39 377.219 1185.94 358.341 1187.01C339.412 1188.08 320.224 1186.64 304.688 1180.19C289.299 1173.8 277.521 1162.54 272.932 1143.66L269.568 1144.62L272.932 1143.66C263.144 1103.42 222.129 946.384 183.575 799.465C164.294 725.993 145.625 655.034 131.776 602.443C124.852 576.147 119.132 554.444 115.144 539.314C113.15 531.749 111.588 525.828 110.525 521.797L109.313 517.201L109.003 516.025L108.925 515.728L108.905 515.653L108.9 515.634C108.899 515.63 108.898 515.628 105.551 516.659L108.898 515.628L108.883 515.572L108.868 515.521L108.868 515.52L108.868 515.519L108.867 515.517L108.863 515.504C108.858 515.487 108.85 515.458 108.838 515.416C108.815 515.333 108.778 515.201 108.73 515.022C108.635 514.663 108.496 514.115 108.33 513.392C107.999 511.947 107.563 509.804 107.162 507.078C106.359 501.62 105.698 493.847 106.281 484.65C107.447 466.281 113.569 442.266 133.462 419.555C154.01 396.097 163.549 382.282 167.529 372.864C169.566 368.043 170.206 364.246 170.059 360.841C169.944 358.172 169.322 355.794 168.798 353.788C168.685 353.357 168.577 352.944 168.48 352.548C166.383 344.054 130.084 197.765 111.609 123.33L110.98 120.797L108.4 120.776C104.701 120.746 102.136 118.688 101.504 116.129L96.8777 97.3868C96.2527 94.8547 97.5242 91.6817 100.693 89.6297L102.894 88.2038L102.273 85.6858L101.008 80.5605L100.959 80.3613L100.927 80.2781C100.92 80.2445 100.909 80.1865 100.898 80.1054C100.866 79.8622 100.837 79.3989 100.935 78.741C101.125 77.4635 101.836 75.1972 104.405 72.2072C109.655 66.0968 122.492 57.1746 153.124 48.2648L155.111 47.6871C185.737 38.7792 200.964 39.5388 208.327 41.9811C211.93 43.1763 213.591 44.7529 214.345 45.7562C214.734 46.2729 214.922 46.6902 215.006 46.9183C215.035 46.9944 215.052 47.0507 215.061 47.0837L215.072 47.1718L215.121 47.3698L216.386 52.4951L217.011 55.0257L219.588 55.0532C223.248 55.0924 225.818 57.1485 226.448 59.7003L231.075 78.4426C231.704 80.9915 230.416 84.1778 227.227 86.2149L225.005 87.6345L225.627 90.1672C234.689 127.05 248.074 181.564 259.534 228.237C271.217 275.821 280.9 315.254 281.958 319.542C282.056 319.939 282.153 320.356 282.254 320.792C282.723 322.81 283.279 325.204 284.407 327.576C285.847 330.605 288.148 333.546 292.133 336.617C298.874 341.812 310.748 347.601 332.39 355.009L332.213 355.061L343.144 358.567C370.828 367.447 387.196 384.925 396.671 400.201C401.414 407.849 404.424 414.94 406.242 420.101C407.151 422.68 407.76 424.772 408.139 426.202Z" stroke="#A12B4E" stroke-opacity="0.7" stroke-width="7"/>
</svg>
