<svg width="469" height="844" viewBox="0 0 469 844" fill="none" xmlns="http://www.w3.org/2000/svg">
<path d="M251.292 318.519C194.087 300.2 194.794 291.923 192.319 281.895C190.223 273.403 154.289 127.012 135.989 52.5236C140.18 49.8466 142.518 45.1815 141.435 40.7952L136.809 22.0529C135.729 17.6782 131.582 14.8995 126.747 14.8477L125.482 9.72242C125.482 9.72242 122.939 -10.3172 61.2718 7.61917L59.2856 8.19686C-2.39385 26.1368 4.64704 44.868 4.64704 44.868L5.91219 49.9933C1.75445 52.686 -0.559961 57.3314 0.517013 61.6944L5.14346 80.4366C6.22621 84.823 10.3732 87.6018 15.2489 87.6418C33.7249 162.08 70.023 308.365 72.119 316.856C74.5972 326.896 79.0067 333.671 37.9162 380.581C-3.17423 427.492 12.5513 479.99 12.5513 479.99C12.5513 479.99 157.013 1027.56 176.568 1107.95C196.114 1188.36 339.592 1139.48 339.592 1139.48C339.592 1139.48 486.363 1103.93 466.256 1023.71C446.16 943.469 319.047 390.856 319.047 390.856C319.061 390.852 308.471 336.863 251.288 318.521L251.292 318.519Z" fill="white"/>
<path d="M315.139 389.532C315.2 389.765 315.255 389.98 315.305 390.176L315.674 391.779L319.047 390.856C315.674 391.779 315.674 391.781 315.675 391.785L315.679 391.804L315.697 391.88L315.766 392.18L316.039 393.367L317.106 398.005C317.531 399.854 318.048 402.097 318.649 404.711C319.371 407.847 320.216 411.518 321.175 415.682C324.69 430.949 329.734 452.849 335.849 479.38C348.08 532.442 364.598 604.027 381.743 678.12C416.028 826.28 452.84 984.537 462.898 1024.7C467.619 1043.53 462.607 1059.68 452.222 1073.56C441.737 1087.57 425.784 1099.24 408.898 1108.58C392.056 1117.9 374.549 1124.77 361.219 1129.32C354.562 1131.59 348.967 1133.28 345.042 1134.39C343.08 1134.95 341.536 1135.36 340.488 1135.64C339.964 1135.77 339.564 1135.88 339.297 1135.94C339.174 1135.97 339.079 1136 339.014 1136.01L338.998 1136.02L338.926 1136.03L338.91 1136.04L338.907 1136.04L338.752 1136.08L338.601 1136.13L338.598 1136.13L338.582 1136.13L338.512 1136.16C338.448 1136.18 338.35 1136.21 338.219 1136.26C337.957 1136.34 337.563 1136.47 337.046 1136.64C336.012 1136.97 334.484 1137.45 332.529 1138.03C328.616 1139.2 322.995 1140.77 316.184 1142.42C302.546 1145.72 284.219 1149.27 265.341 1150.34C246.412 1151.41 227.224 1149.97 211.688 1143.52C196.299 1137.13 184.521 1125.87 179.932 1106.99L176.568 1107.95L179.932 1106.99C170.144 1066.75 129.129 909.714 90.5746 762.795C71.2943 689.324 52.6252 618.364 38.7763 565.773C31.8518 539.477 26.1323 517.774 22.1439 502.644C20.1497 495.079 18.5883 489.158 17.5254 485.127L16.3133 480.531L16.003 479.355L15.9245 479.058L15.9048 478.983L15.8999 478.964C15.8988 478.96 15.8982 478.958 12.5513 479.99L15.8982 478.958L15.8835 478.902L15.8681 478.851L15.8678 478.85L15.8677 478.849L15.8669 478.847L15.8632 478.834C15.8583 478.817 15.8498 478.788 15.8381 478.746C15.8145 478.663 15.7779 478.531 15.7302 478.352C15.6349 477.993 15.4957 477.445 15.3302 476.722C14.9992 475.277 14.5633 473.134 14.162 470.408C13.3588 464.95 12.6978 457.177 13.2814 447.98C14.447 429.611 20.569 405.596 40.4617 382.886C61.0095 359.427 70.5489 345.612 74.5289 336.194C76.5665 331.373 77.2059 327.576 77.0591 324.171C76.9441 321.502 76.3224 319.124 75.798 317.118C75.6854 316.687 75.5773 316.274 75.4797 315.878C73.383 307.384 37.084 161.095 18.6085 86.6599L17.9799 84.1272L15.3996 84.1061C11.701 84.0757 9.13594 82.0184 8.50419 79.4591L3.87775 60.7169C3.25271 58.1848 4.52425 55.0118 7.6928 52.9597L9.89448 51.5339L9.27292 49.0158L8.00776 43.8906L7.95861 43.6914L7.92731 43.6081C7.92005 43.5745 7.90892 43.5166 7.89825 43.4355C7.86621 43.1922 7.83654 42.729 7.93465 42.0711C8.12515 40.7935 8.83649 38.5273 11.4053 35.5373C16.6549 29.4269 29.4916 20.5047 60.1244 11.5949L62.1106 11.0172C92.737 2.10926 107.964 2.86892 115.327 5.31122C118.93 6.50638 120.591 8.08296 121.345 9.08629C121.734 9.60294 121.922 10.0203 122.006 10.2484C122.035 10.3245 122.052 10.3808 122.061 10.4138L122.072 10.5018L122.121 10.6999L123.386 15.8252L124.011 18.3557L126.588 18.3833C130.248 18.4225 132.818 20.4786 133.448 23.0304L138.075 41.7726C138.704 44.3215 137.416 47.5078 134.227 49.545L132.005 50.9646L132.627 53.4973C141.693 90.3958 155.086 144.941 166.549 191.628C178.226 239.185 187.9 278.586 188.958 282.872C189.056 283.269 189.153 283.686 189.254 284.122C189.723 286.14 190.279 288.534 191.407 290.906C192.847 293.935 195.148 296.876 199.133 299.947C205.874 305.143 217.748 310.931 239.39 318.339L239.213 318.391L250.144 321.897C277.828 330.777 294.196 348.255 303.671 363.531C308.414 371.179 311.424 378.27 313.242 383.431C314.151 386.01 314.76 388.102 315.139 389.532Z" stroke="#A12B4E" stroke-opacity="0.7" stroke-width="7"/>
</svg>
