<svg width="428" height="600" viewBox="0 0 428 600" fill="none" xmlns="http://www.w3.org/2000/svg">
<path d="M407.503 388.762L407.545 387.965C408.88 362.627 410.213 333.255 410.213 299.208C410.213 276.504 409.546 255.145 408.877 236.48L408.703 231.644L404.86 234.584C388.345 247.216 360.005 257.124 325.87 263.853C291.828 270.564 252.354 274.051 213.851 274.051C175.348 274.051 135.873 270.564 101.83 263.853C67.6941 257.124 39.3547 247.216 22.842 234.584L18.9912 231.638L18.8245 236.484C18.1595 255.808 17.4889 276.504 17.4889 299.208C17.4889 333.216 18.1539 362.61 20.1607 388.03L20.2168 388.74L20.6386 389.314C25.1626 395.468 33.3438 401.267 44.3178 406.518C55.3503 411.798 69.4495 416.637 86.0915 420.746C119.38 428.965 163.055 434.312 213.185 434.313L407.503 388.762ZM407.503 388.762L407.007 389.387M407.503 388.762L407.007 389.387M407.007 389.387C402.159 395.493 393.76 401.275 382.598 406.525C371.384 411.8 357.165 416.638 340.441 420.747C306.988 428.965 263.316 434.312 213.189 434.313L407.007 389.387ZM45.9411 35.8119C36.4468 42.1791 30.2905 49.215 27.8573 56.8082H28.4134L26.9683 60.271C23.8133 67.8313 1.84589 130.774 2.5144 299.191V299.201C2.5144 476.322 27.157 536.494 28.2307 538.639L28.2593 538.696L28.2849 538.754C36.1754 556.755 56.6357 571.437 88.4576 581.606C120.185 591.746 162.708 597.231 213.855 597.231C264.999 597.231 307.52 591.746 339.248 581.606C371.07 571.437 391.532 556.755 399.425 538.754L399.45 538.697L399.478 538.642C400.55 536.493 425.195 476.319 425.195 299.201C425.195 130.797 402.564 67.8506 399.407 60.2693L399.307 60.0294L399.258 59.7742C397.601 51.0412 391.136 43.0004 380.417 35.8119C369.723 28.6402 355.089 22.5234 337.736 17.5639C303.047 7.64963 257.99 2.5 213.18 2.5C168.37 2.5 123.312 7.64963 88.6219 17.5639C71.2683 22.5234 56.6349 28.6402 45.9411 35.8119ZM34.876 88.6889L35.888 84.6375L38.9811 87.443C52.7911 99.9693 77.8834 109.691 109.02 116.252C140.046 122.79 176.676 126.11 213.18 126.11C279.737 126.11 323.411 116.318 350.368 106.601C363.847 101.742 373.154 96.8994 379.059 93.3027C382.012 91.5042 384.116 90.0162 385.467 88.992C386.142 88.4799 386.63 88.0834 386.942 87.8217C387.098 87.6909 387.21 87.5933 387.28 87.5313C387.315 87.5004 387.341 87.4777 387.357 87.463L387.38 87.4427L387.4 87.4243C387.407 87.4187 387.426 87.4022 387.439 87.391C387.475 87.3607 388.231 86.9378 389.044 86.7973V86.7948H389.059V86.7992C390.409 87.2046 391.373 88.3858 391.415 88.5028C391.429 88.5446 391.448 88.6081 391.454 88.63C391.464 88.6647 391.471 88.6928 391.473 88.7C391.478 88.7215 391.483 88.7412 391.485 88.7521C391.491 88.7774 391.498 88.8088 391.506 88.8426C391.521 88.912 391.543 89.0117 391.571 89.139C391.628 89.3947 391.709 89.7704 391.814 90.2568C392.023 91.2299 392.324 92.6494 392.695 94.4411C393.438 98.0243 394.46 103.099 395.587 109.072C397.838 121.008 400.512 136.566 402.188 150.979L402.344 152.322L401.306 153.188C388.856 163.566 365.406 173.502 333.481 180.859C301.463 188.237 260.635 193.083 213.173 193.083C171.056 193.083 131.076 189.072 98.1555 182.117C65.3515 175.187 39.1764 165.258 25.0175 153.169L24.0002 152.3L24.1584 150.972C27.5015 122.901 31.5167 102.138 34.876 88.6889ZM400.327 165.181L400.957 164.761H401.714H401.716H403.999L404.205 167.034C405.542 181.714 406.884 198.463 406.876 217.906L406.875 218.726L406.39 219.386C401.865 225.539 393.643 231.379 382.599 236.691C371.495 242.032 357.293 246.956 340.527 251.149C306.988 259.536 262.979 265.051 212.512 265.051C162.046 265.051 118.202 259.537 84.7456 251.149C68.0197 246.957 53.8403 242.033 42.7077 236.694C31.6292 231.38 23.3448 225.548 18.6618 219.424L18.0866 218.671L18.1542 217.727C19.4887 199.064 20.8201 181.718 22.1565 167.034L22.5334 162.892L26.0144 165.169C42.9482 176.242 69.4017 185.492 101.916 191.964C134.378 198.424 172.685 202.077 213.18 202.077C254.346 202.077 292.819 198.424 325.195 191.964C357.625 185.493 383.736 176.245 400.327 165.181ZM385.411 532.658C385.411 532.659 385.41 532.659 383.074 531.77L385.41 532.659L385.382 532.735L385.348 532.809C379.58 545.423 363.766 557.724 336.142 566.879C308.408 576.07 268.316 582.249 213.191 582.249C158.066 582.249 117.807 576.07 89.9899 566.879C63.4092 558.097 47.7239 546.403 41.71 534.27H40.8037V532.063C40.7747 531.967 40.7349 531.84 40.6818 531.674C40.6148 531.464 40.5337 531.215 40.4368 530.916L40.3946 530.786C40.2796 530.432 40.1463 530.021 39.9964 529.552C39.3955 527.674 38.5323 524.893 37.4811 521.108C35.3789 513.537 32.531 501.971 29.5192 485.576L28.5717 480.419L33.1753 482.93C69.2743 502.622 137.385 515.276 213.189 515.276C288.997 515.276 357.111 502.622 393.202 482.93L397.806 480.418L396.859 485.576C393.848 501.969 391 513.701 388.899 521.354C387.848 525.18 386.983 527.987 386.378 529.847C386.075 530.777 385.837 531.47 385.672 531.936C385.59 532.169 385.527 532.345 385.483 532.465C385.461 532.525 385.444 532.571 385.431 532.604L385.417 532.642L385.413 532.653L385.411 532.657L385.411 532.658ZM399.517 467.543L399.352 468.531L398.551 469.132C383.444 480.468 357.348 489.886 325.108 496.486C292.779 503.104 253.968 506.949 213.185 506.949C172.401 506.949 133.593 503.105 101.265 496.487C69.5013 489.984 43.7011 480.747 28.4939 469.633H27.0849L26.8207 467.43C26.3767 463.73 25.899 459.891 25.4024 455.901C23.6695 441.976 21.7073 426.209 20.1496 408.038L19.6987 402.778L24.0537 405.762C41.6077 417.792 70.0095 427.21 103.636 433.604C137.189 439.985 175.672 443.306 213.177 443.306C251.027 443.306 289.677 440.151 323.226 433.854C356.855 427.542 385.058 418.127 402.256 405.793L406.668 402.629L406.204 408.038C404.205 431.36 402.199 451.441 399.517 467.543ZM42.1356 63.9722C42.1356 60.949 43.5034 58.0322 45.7062 55.3353C47.9153 52.6306 51.0996 49.9745 55.0988 47.4064C63.1015 42.2672 74.7307 37.2502 89.4685 32.8403C118.974 24.0115 161.358 17.4925 213.18 17.4925C265 17.4925 307.384 24.0115 336.89 32.8403C351.628 37.2502 363.258 42.2672 371.261 47.4063C375.26 49.9745 378.445 52.6306 380.654 55.3352C382.857 58.0322 384.225 60.9489 384.225 63.9722C384.225 66.9953 382.857 69.9121 380.654 72.609C378.445 75.3137 375.261 77.9698 371.262 80.5379C363.259 85.6771 351.63 90.6941 336.892 95.1041C307.387 103.933 265.002 110.452 213.18 110.452C161.693 110.452 119.309 103.932 89.7221 95.1046C74.9435 90.6952 63.2532 85.6791 55.1996 80.5421C51.1753 77.9752 47.9673 75.3204 45.7404 72.6171C43.5206 69.9225 42.1356 67.003 42.1356 63.9722Z" fill="#A12B4E" stroke="white" stroke-width="5"/>
<path d="M272.307 63.9731C272.307 64.5636 272.662 65.5453 274.237 66.8126C275.786 68.0588 278.212 69.3162 281.516 70.431C288.099 72.6522 297.639 74.1317 309.113 74.1317C320.616 74.1317 330.159 72.8129 336.735 70.6736C340.035 69.6002 342.439 68.3677 343.969 67.1111C345.489 65.8628 345.918 64.7987 345.918 63.9731C345.918 63.3826 345.564 62.4009 343.988 61.1336C342.439 59.8874 340.013 58.6299 336.71 57.5152C330.127 55.294 320.586 53.8145 309.113 53.8145C297.298 53.8145 287.764 55.2947 281.275 57.5106C278.019 58.6223 275.663 59.8743 274.17 61.1096C272.665 62.3559 272.307 63.3414 272.307 63.9731Z" fill="#A12B4E" stroke="white" stroke-width="5"/>
</svg>
