<svg width="428" height="600" viewBox="0 0 428 600" fill="none" xmlns="http://www.w3.org/2000/svg">
<path d="M407.504 388.762L407.546 387.965C408.881 362.627 410.213 333.255 410.213 299.208C410.213 276.504 409.547 255.145 408.877 236.48L408.704 231.644L404.86 234.584C388.345 247.216 360.006 257.124 325.871 263.853C291.828 270.564 252.355 274.051 213.851 274.051C175.348 274.051 135.873 270.564 101.83 263.853C67.6945 257.124 39.3552 247.216 22.8425 234.584L18.9917 231.638L18.825 236.484C18.16 255.808 17.4894 276.504 17.4894 299.208C17.4894 333.216 18.1544 362.61 20.1612 388.03L20.2173 388.74L20.6391 389.314C25.1631 395.468 33.3442 401.267 44.3183 406.518C55.3508 411.798 69.45 416.637 86.092 420.746C119.381 428.965 163.055 434.312 213.185 434.313L407.504 388.762ZM407.504 388.762L407.007 389.387M407.504 388.762L407.007 389.387M407.007 389.387C402.159 395.493 393.761 401.275 382.598 406.525C371.385 411.8 357.166 416.638 340.441 420.747C306.988 428.965 263.317 434.312 213.19 434.313L407.007 389.387ZM45.9416 35.8119C36.4473 42.1791 30.291 49.215 27.8578 56.8082H28.4138L26.9688 60.271C23.8138 67.8313 1.84637 130.774 2.51489 299.191V299.201C2.51489 476.322 27.1575 536.494 28.2312 538.639L28.2598 538.696L28.2854 538.754C36.1759 556.755 56.6362 571.437 88.4581 581.606C120.186 591.746 162.709 597.231 213.855 597.231C264.999 597.231 307.521 591.746 339.249 581.606C371.07 571.437 391.532 556.755 399.425 538.754L399.45 538.697L399.478 538.642C400.55 536.493 425.196 476.319 425.196 299.201C425.196 130.797 402.564 67.8506 399.407 60.2693L399.307 60.0294L399.259 59.7742C397.602 51.0412 391.136 43.0004 380.417 35.8119C369.723 28.6402 355.09 22.5234 337.737 17.5639C303.047 7.64963 257.991 2.5 213.181 2.5C168.371 2.5 123.313 7.64963 88.6224 17.5639C71.2688 22.5234 56.6353 28.6402 45.9416 35.8119ZM34.8765 88.6889L35.8885 84.6375L38.9816 87.443C52.7916 99.9693 77.8839 109.691 109.02 116.252C140.046 122.79 176.676 126.11 213.181 126.11C279.737 126.11 323.411 116.318 350.368 106.601C363.848 101.742 373.155 96.8994 379.06 93.3027C382.013 91.5042 384.117 90.0162 385.467 88.992C386.143 88.4799 386.631 88.0834 386.942 87.8217C387.098 87.6909 387.21 87.5933 387.281 87.5313C387.316 87.5004 387.341 87.4777 387.358 87.463L387.38 87.4427L387.401 87.4243C387.407 87.4187 387.426 87.4022 387.439 87.391C387.476 87.3607 388.232 86.9378 389.045 86.7973V86.7948H389.06V86.7992C390.41 87.2046 391.374 88.3858 391.416 88.5028C391.429 88.5446 391.449 88.6081 391.455 88.63C391.464 88.6647 391.471 88.6928 391.473 88.7C391.478 88.7215 391.483 88.7412 391.486 88.7521C391.491 88.7774 391.499 88.8088 391.506 88.8426C391.522 88.912 391.544 89.0117 391.572 89.139C391.628 89.3947 391.71 89.7704 391.814 90.2568C392.024 91.2299 392.325 92.6494 392.696 94.4411C393.438 98.0243 394.461 103.099 395.587 109.072C397.839 121.008 400.512 136.566 402.189 150.979L402.345 152.322L401.306 153.188C388.856 163.566 365.407 173.502 333.482 180.859C301.463 188.237 260.635 193.083 213.173 193.083C171.056 193.083 131.077 189.072 98.156 182.117C65.352 175.187 39.1769 165.258 25.018 153.169L24.0007 152.3L24.1589 150.972C27.502 122.901 31.5172 102.138 34.8765 88.6889ZM400.328 165.181L400.958 164.761H401.715H401.716H403.999L404.206 167.034C405.542 181.714 406.885 198.463 406.876 217.906L406.876 218.726L406.39 219.386C401.866 225.539 393.643 231.379 382.599 236.691C371.495 242.032 357.294 246.956 340.527 251.149C306.988 259.536 262.98 265.051 212.512 265.051C162.046 265.051 118.203 259.537 84.7461 251.149C68.0202 246.957 53.8408 242.033 42.7082 236.694C31.6296 231.38 23.3453 225.548 18.6623 219.424L18.0871 218.671L18.1547 217.727C19.4892 199.064 20.8206 181.718 22.157 167.034L22.5339 162.892L26.0149 165.169C42.9486 176.242 69.4022 185.492 101.916 191.964C134.379 198.424 172.685 202.077 213.181 202.077C254.346 202.077 292.819 198.424 325.196 191.964C357.626 185.493 383.736 176.245 400.328 165.181ZM385.411 532.658C385.411 532.659 385.411 532.659 383.075 531.77L385.411 532.659L385.382 532.735L385.348 532.809C379.581 545.423 363.767 557.724 336.143 566.879C308.408 576.07 268.316 582.249 213.191 582.249C158.067 582.249 117.808 576.07 89.9904 566.879C63.4097 558.097 47.7244 546.403 41.7105 534.27H40.8042V532.063C40.7752 531.967 40.7354 531.84 40.6823 531.674C40.6153 531.464 40.5342 531.215 40.4373 530.916L40.3951 530.786C40.2801 530.432 40.1468 530.021 39.9969 529.552C39.396 527.674 38.5328 524.893 37.4816 521.108C35.3794 513.537 32.5315 501.971 29.5197 485.576L28.5722 480.419L33.1758 482.93C69.2747 502.622 137.386 515.276 213.189 515.276C288.997 515.276 357.111 502.622 393.203 482.93L397.806 480.418L396.859 485.576C393.848 501.969 391.001 513.701 388.899 521.354C387.848 525.18 386.984 527.987 386.378 529.847C386.075 530.777 385.837 531.47 385.673 531.936C385.591 532.169 385.527 532.345 385.483 532.465C385.461 532.525 385.444 532.571 385.432 532.604L385.418 532.642L385.413 532.653L385.412 532.657L385.411 532.658ZM399.517 467.543L399.353 468.531L398.552 469.132C383.444 480.468 357.348 489.886 325.108 496.486C292.779 503.104 253.969 506.949 213.185 506.949C172.401 506.949 133.594 503.105 101.265 496.487C69.5018 489.984 43.7016 480.747 28.4944 469.633H27.0854L26.8212 467.43C26.3772 463.73 25.8995 459.891 25.4029 455.901C23.67 441.976 21.7078 426.209 20.1501 408.038L19.6992 402.778L24.0542 405.762C41.6082 417.792 70.01 427.21 103.636 433.604C137.19 439.985 175.672 443.306 213.177 443.306C251.028 443.306 289.678 440.151 323.226 433.854C356.855 427.542 385.059 418.127 402.257 405.793L406.668 402.629L406.204 408.038C404.205 431.36 402.199 451.441 399.517 467.543ZM42.136 63.9722C42.136 60.949 43.5039 58.0322 45.7067 55.3353C47.9158 52.6306 51.1001 49.9745 55.0992 47.4064C63.102 42.2672 74.7312 37.2502 89.469 32.8403C118.975 24.0115 161.359 17.4925 213.181 17.4925C265 17.4925 307.384 24.0115 336.891 32.8403C351.629 37.2502 363.258 42.2672 371.262 47.4063C375.261 49.9745 378.445 52.6306 380.655 55.3352C382.858 58.0322 384.226 60.9489 384.226 63.9722C384.226 66.9953 382.858 69.9121 380.655 72.609C378.446 75.3137 375.261 77.9698 371.262 80.5379C363.26 85.6771 351.63 90.6941 336.893 95.1041C307.387 103.933 265.003 110.452 213.181 110.452C161.693 110.452 119.31 103.932 89.7226 95.1046C74.944 90.6952 63.2537 85.6791 55.2001 80.5421C51.1758 77.9752 47.9678 75.3204 45.7408 72.6171C43.5211 69.9225 42.136 67.003 42.136 63.9722Z" fill="#A12B4E" stroke="white" stroke-width="5"/>
<path d="M272.308 63.9731C272.308 64.5636 272.662 65.5453 274.237 66.8126C275.787 68.0588 278.213 69.3162 281.516 70.431C288.099 72.6522 297.639 74.1317 309.113 74.1317C320.617 74.1317 330.159 72.8129 336.736 70.6736C340.035 69.6002 342.439 68.3677 343.969 67.1111C345.489 65.8628 345.918 64.7987 345.918 63.9731C345.918 63.3826 345.564 62.4009 343.989 61.1336C342.44 59.8874 340.014 58.6299 336.71 57.5152C330.127 55.294 320.587 53.8145 309.113 53.8145C297.299 53.8145 287.765 55.2947 281.275 57.5106C278.019 58.6223 275.663 59.8743 274.171 61.1096C272.665 62.3559 272.308 63.3414 272.308 63.9731Z" fill="#A12B4E" stroke="white" stroke-width="5"/>
</svg>
