<svg width="63" height="79" viewBox="0 0 63 79" fill="none" xmlns="http://www.w3.org/2000/svg">
<g filter="url(#filter0_d_1202_2793)">
<path fill-rule="evenodd" clip-rule="evenodd" d="M43.1722 16.7657C36.638 9.14321 26.0441 9.14321 19.51 16.7657C12.9758 24.3881 12.9758 36.7466 19.51 44.3691L31.3411 58.1708L43.1722 44.3691C49.7063 36.7466 49.7063 24.3881 43.1722 16.7657Z" fill="white"/>
<path fill-rule="evenodd" clip-rule="evenodd" d="M16.8932 15.0533C24.7253 7.16973 37.4235 7.16973 45.2556 15.0533C58.3569 28.2408 46.0523 44.5779 36.3446 57.467L36.3446 57.4671C34.4111 60.0342 32.5806 62.4646 31.0744 64.706C29.5682 62.4646 27.7377 60.0342 25.8042 57.467L25.8042 57.467C16.0965 44.5779 3.79191 28.2408 16.8932 15.0533ZM21.7893 28.2406C21.7893 24.1102 23.889 20.6114 27.3275 19.0119C29.6718 17.9212 32.8956 17.9381 35.0684 19.052C36.0169 19.5381 36.9105 20.1275 37.0553 20.3622C37.1745 20.5564 36.6326 20.2949 35.8127 19.8993C35.6441 19.8179 35.4637 19.7309 35.2748 19.641C33.4605 18.7764 33.0001 18.7764 30.5471 18.7764C30.2085 18.8592 29.9024 18.9302 29.6217 18.9953C28.0571 19.3582 27.2777 19.539 26.0185 20.5758C24.2292 22.049 22.6243 25.2605 23.2091 25.8478C23.368 26.0071 23.6637 26.0668 24.3352 25.7498C25.0313 25.4213 25.3193 25.0883 25.0052 24.9738C24.6206 24.8341 24.5824 24.534 24.8787 23.978C25.1118 23.5399 25.1897 23.0689 25.0517 22.9304C24.595 22.471 26.4114 20.9676 28.5629 20.0238L30.5471 19.3209L31.5943 20.0069C32.4623 20.879 32.9797 20.9053 34.7643 20.1681C35.4091 19.9014 35.7326 20.2638 36.5201 22.1362C37.1697 23.681 37.8057 24.5118 38.4657 24.6783C39.7591 25.0046 41.0133 26.4314 40.5988 27.105C40.4175 27.3992 40.2022 28.4392 40.1197 29.416C39.9216 31.7647 38.7798 33.6386 36.4653 35.4122C36.0455 35.7341 35.5727 36.0464 35.1819 36.3045C34.6021 36.6874 34.2026 36.9512 34.4236 36.9512C34.7941 36.9512 38.3314 38.4712 38.4657 38.6888C38.5154 38.7696 38.1181 38.6371 37.4894 38.4274C36.3598 38.0508 34.4831 37.4249 33.1093 37.3388C32.6566 37.3105 32.2284 37.2812 31.8213 37.2533C28.4806 37.0247 26.5641 36.8936 24.2485 38.1639C23.8926 38.3592 23.5852 38.5553 23.3284 38.7191C23.0743 38.8812 22.8696 39.0117 22.7163 39.0789C22.6661 38.5988 24.6065 37.3136 25.9981 36.9512L27.708 36.6026L26.1005 35.6499C25.2163 35.1255 24.0342 33.9836 23.4735 33.1119C22.9123 32.2402 22.1049 31.4126 21.6785 31.2728C20.8528 31.0017 20.6035 30.1879 21.3461 30.1879C21.5896 30.1879 21.7893 29.3118 21.7893 28.2406ZM33.5216 21.6523C31.9492 22.3722 30.6506 22.3063 30.6506 21.5067C30.6506 20.4521 29.2015 20.7254 27.5799 22.0855C26.2876 23.1695 26.159 23.4549 26.5949 24.2736C26.9952 25.0241 26.9199 25.6056 26.2249 27.1446C25.7452 28.2064 25.3485 28.8248 25.3433 28.5185C25.3381 28.2126 25.1405 27.962 24.9043 27.962C24.6687 27.962 24.5364 28.2126 24.6101 28.5185C24.6848 28.8248 24.6613 28.9236 24.5589 28.7384C24.456 28.5532 24.2083 28.5033 24.0081 28.6275C23.808 28.7517 23.7484 28.4526 23.8759 27.9624C24.0034 27.4727 24.3718 27.0716 24.6948 27.0716C25.0172 27.0716 25.3929 26.89 25.5293 26.6678C25.6662 26.4461 25.3757 26.37 24.8845 26.4991C23.4014 26.8886 22.5773 29.1168 23.7489 29.5686C24.5798 29.8892 26.2197 28.985 26.2197 28.2059C26.2197 27.8676 26.4459 27.5154 26.7219 27.4228C26.9978 27.3302 27.247 26.6584 27.2758 25.9297C27.3176 24.8554 27.5151 24.6128 28.3215 24.648C28.8675 24.6716 29.4654 24.8581 29.6504 25.062C29.8348 25.2664 29.6869 25.2717 29.3211 25.0744C28.7724 24.7775 28.7557 24.822 29.2271 25.3318C29.5411 25.6706 30.0397 25.9702 30.3349 25.9969C30.6302 26.0236 31.2709 26.0793 31.7579 26.1202C32.4979 26.1825 32.5345 26.2662 31.9795 26.6264C31.4371 26.979 31.4893 27.0591 32.2643 27.0649C32.7869 27.0685 33.3246 27.3619 33.4605 27.7167C33.6188 28.1316 33.4939 28.2798 33.1093 28.1316C32.7811 28.0047 32.3803 28.1151 32.2199 28.3769C32.0589 28.6382 32.1221 28.8523 32.3599 28.8523C32.5987 28.8523 33.0602 28.9552 33.3863 29.0812C33.7207 29.2103 34.1733 28.8706 34.4236 28.3021C34.6859 27.706 35.1824 27.3476 35.6386 27.4251C36.0634 27.4967 36.4099 27.3307 36.4099 27.0556C36.4099 26.7315 35.904 26.6531 34.9702 26.833C33.8127 27.056 33.6836 27.0141 34.3102 26.6211C34.8218 26.3001 35.0219 25.7587 34.8928 25.0437C34.6969 23.9575 35.2273 23.5573 35.7457 24.4004C35.8962 24.6453 35.7655 24.8457 35.4551 24.8457C35.0601 24.8457 35.1045 25.0602 35.6035 25.5619C36.1183 26.0784 36.5296 26.1581 37.0819 25.8478C37.7811 25.4547 37.7587 25.355 36.8253 24.6983C36.2636 24.3025 35.7347 23.527 35.6511 22.975C35.417 21.4359 34.8134 21.0611 33.5216 21.6523ZM27.3275 23.807C26.4564 23.807 26.4877 23.519 27.4383 22.7942C28.4406 22.0298 28.67 22.0214 28.0502 22.772C27.779 23.1005 27.6546 23.4678 27.7743 23.588C27.894 23.7086 27.6928 23.807 27.3275 23.807ZM32.7168 24.0884C31.8384 24.4267 31.7757 24.1502 32.5334 23.2857C33.1015 22.6375 34.7732 22.6073 35.3966 23.2336C35.5884 23.4264 35.5461 23.5439 35.3025 23.4945C34.3191 23.2951 33.7515 23.5448 33.7515 24.1779C33.7515 24.5452 33.5404 24.8457 33.2828 24.8457C33.0246 24.8457 32.9572 24.6115 33.1339 24.3248C33.3492 23.9744 33.2128 23.8969 32.7168 24.0884ZM30.2921 24.8786C30.2168 24.8603 30.278 24.6453 30.429 24.4004C30.799 23.799 31.0399 23.8378 31.8238 24.6253C32.4179 25.2223 32.3777 25.2748 31.46 25.1039C30.8925 24.9984 30.3673 24.8969 30.2921 24.8786ZM27.5073 30.0623C27.606 29.7641 28.1783 28.8693 28.7782 28.0732C30.2654 26.1015 29.3839 26.2377 27.6066 28.2549C26.5217 29.4858 26.3127 29.9711 26.7495 30.2435C27.095 30.459 27.3996 30.386 27.5073 30.0623ZM37.2695 27.8751C37.7717 27.5604 38.1825 27.1504 38.1825 26.9643C38.1825 26.2814 37.3129 26.6531 36.8426 27.5372C36.3942 28.3782 36.4271 28.4041 37.2695 27.8751ZM32.6494 31.519C33.103 31.1406 33.1673 30.7546 32.8694 30.1954C32.4535 29.4146 30.3443 28.7148 30.0162 29.2486C29.9221 29.4008 30.3323 30.094 30.9275 30.7893C31.8034 31.8119 32.131 31.9513 32.6494 31.519ZM37.6301 33.4249C39.1362 31.2412 39.1106 30.8593 37.4545 30.8218C36.5834 30.8027 35.7243 30.4697 35.4018 30.0267C34.9817 29.4494 34.7235 29.3897 34.3342 29.7806C34.052 30.0641 33.912 30.5351 34.0233 30.8268C34.1351 31.1184 33.8205 31.726 33.3241 32.177C32.3134 33.0959 32.1033 35.4349 33.0001 35.7808C33.9553 36.1494 36.7219 34.7422 37.6301 33.4249ZM27.3286 31.5235C26.7475 31.5235 26.1491 31.3231 25.9981 31.0783C25.7138 30.6157 25.6046 30.6059 24.3614 30.9354C22.3923 31.4567 26.621 35.9753 29.0776 35.9753C29.9895 35.9753 29.9874 33.8224 29.0745 32.5131C28.6899 31.9611 27.918 31.5235 27.3286 31.5235Z" fill="#A12B4E"/>
</g>
<defs>
<filter id="filter0_d_1202_2793" x="0.267816" y="0.804878" width="62.8293" height="77.8537" filterUnits="userSpaceOnUse" color-interpolation-filters="sRGB">
<feFlood flood-opacity="0" result="BackgroundImageFix"/>
<feColorMatrix in="SourceAlpha" type="matrix" values="0 0 0 0 0 0 0 0 0 0 0 0 0 0 0 0 0 0 127 0" result="hardAlpha"/>
<feOffset dx="0.682927" dy="2.73171"/>
<feGaussianBlur stdDeviation="5.46341"/>
<feComposite in2="hardAlpha" operator="out"/>
<feColorMatrix type="matrix" values="0 0 0 0 0 0 0 0 0 0 0 0 0 0 0 0 0 0 0.25 0"/>
<feBlend mode="normal" in2="BackgroundImageFix" result="effect1_dropShadow_1202_2793"/>
<feBlend mode="normal" in="SourceGraphic" in2="effect1_dropShadow_1202_2793" result="shape"/>
</filter>
</defs>
</svg>
