<?xml version="1.0" encoding="utf-8"?><svg viewBox="0 0 694 1221" xmlns="http://www.w3.org/2000/svg" xmlns:xlink="http://www.w3.org/1999/xlink"><style>:root>svg{display:none}:root>svg:target{display:block}</style><svg viewBox="0 0 53 71" id="about1" xmlns="http://www.w3.org/2000/svg"><path d="M14.208 32.157c-.026 3.467-.052 20.105-.065 29.224-1.447.544-3.597.89-6.003.89-4.357 0-7.888-1.132-7.888-2.526v-.205s.029-23.723.055-27.514c.03-3.79 1.564-5.815 3.041-7.249 1.478-1.434 1.536-3.585 1.536-3.585l-.002-9.18c-.236-.076-.409-.275-.409-.512V9.834c0-.238.174-.437.409-.512V8.36c0-.576 1.457-1.042 3.257-1.042s3.257.466 3.257 1.041v.961c.237.076.411.275.411.514V11.5c0 .238-.174.438-.411.513v9.178s.057 2.152 1.535 3.585c.704.683 1.414 1.506 1.974 2.582-.418 1.358-.683 2.939-.697 4.799zm38.632-.133c-.03-3.79-1.562-5.815-3.041-7.25-1.478-1.434-1.535-3.585-1.535-3.585v-9.178c.237-.075.411-.274.411-.512V9.833c0-.238-.174-.437-.411-.513v-.96c0-.577-1.458-1.043-3.257-1.043-1.8 0-3.258.467-3.257 1.043v.96c-.236.076-.409.276-.409.513v1.665c0 .238.173.437.41.513v9.18s-.057 2.151-1.535 3.585c-.703.683-1.413 1.505-1.973 2.58.419 1.359.682 2.938.696 4.798.026 3.466.053 20.107.066 29.226 1.447.544 3.597.89 6.002.89 4.356 0 7.887-1.132 7.889-2.527v-.203s-.028-23.724-.057-27.515zm-20.132-9.13c-1.891-1.837-1.965-4.591-1.965-4.591V6.556c.304-.096.526-.352.526-.658V3.767c0-.306-.223-.56-.527-.658V1.88c0-.736-1.867-1.333-4.168-1.333-2.304 0-4.17.597-4.17 1.334v1.23c-.302.096-.523.35-.523.656v2.132c0 .305.22.559.523.656l.002 11.75s-.073 2.755-1.965 4.59c-1.891 1.837-3.855 4.428-3.892 9.28-.036 4.853-.072 35.218-.072 35.218v.262c0 1.784 4.52 3.232 10.097 3.232 5.576 0 10.097-1.448 10.097-3.234v-.263s-.036-30.366-.073-35.219c-.035-4.852-1.998-7.442-3.89-9.278z"/></svg><svg viewBox="0 0 68 67" id="about2" xmlns="http://www.w3.org/2000/svg"><path d="M19.759.241a1.85 1.85 0 00-1.308.533 1.81 1.81 0 00-.539 1.293v27.268c.001.482.197.945.543 1.285.347.34.816.53 1.304.529h27.584c.485-.003.95-.195 1.293-.535.343-.34.536-.8.537-1.28V2.068A1.808 1.808 0 0048.64.78a1.85 1.85 0 00-1.297-.54H38.42V11.1a1.825 1.825 0 01-1.843 1.81H30.51a1.83 1.83 0 01-1.835-1.81V.241H19.76zm12.6 0v9.034h2.386V.241h-2.387zM1.913 35.53a1.85 1.85 0 00-1.308.53 1.81 1.81 0 00-.54 1.292v27.27c.001.483.197.946.544 1.286.346.34.815.53 1.304.528h27.58a1.85 1.85 0 001.296-.532c.343-.34.537-.801.538-1.282v-27.27a1.802 1.802 0 00-.536-1.287 1.848 1.848 0 00-1.299-.535h-8.916v10.855a1.829 1.829 0 01-1.848 1.81h-6.064a1.83 1.83 0 01-1.835-1.81V35.53H1.914zm12.599 0v9.03h2.386v-9.03h-2.386zm23.093 0c-.49-.003-.96.188-1.307.53a1.807 1.807 0 00-.54 1.292v27.27c0 .483.196.946.543 1.286.346.34.816.53 1.304.528h27.583a1.85 1.85 0 001.294-.533c.343-.34.536-.8.537-1.28V37.35a1.808 1.808 0 00-.534-1.286 1.847 1.847 0 00-1.297-.536h-8.917v10.855a1.828 1.828 0 01-1.847 1.81h-6.068a1.83 1.83 0 01-1.835-1.81V35.53h-8.916zm12.599 0v9.03h2.39v-9.03h-2.39z"/></svg><svg viewBox="0 0 74 66" id="about3" xmlns="http://www.w3.org/2000/svg"><path d="M73.26 62.992L46.514 23.148v-5.787l13.373-6.547c.577-.28.933-.807.933-1.377s-.356-1.097-.932-1.378L45.585 1.053a2.1 2.1 0 00-1.844.001c-.57.285-.92.81-.916 1.377v21.176L27.73 46.106 21.5 36.82c-.328-.493-.937-.796-1.597-.796-.66 0-1.268.303-1.596.796L.737 62.99a1.395 1.395 0 000 1.584c.33.491.94.793 1.601.791h69.32c.66.002 1.271-.3 1.601-.791a1.395 1.395 0 000-1.584l.001.002z"/></svg><svg viewBox="0 0 65 73" id="about4" xmlns="http://www.w3.org/2000/svg"><g clip-path="url(#da)"><path d="M56.218 29.158s.617-.181 1.611.193l3.299-8.401a2.05 2.05 0 01.199-1.205c.01-.024.017-.046.03-.07-2.543 1.492-6.685 2.081-11.629 1.7a5.112 5.112 0 01-.29 1.04c-.981 2.602-1.112.408-1.906.837-.795.429-2.405 1.604-2.518.95-.077-.43-.236-2.317-.077-3.46a55.885 55.885 0 01-7.12-1.815c-.191-.062-.38-.126-.569-.19a.84.84 0 01-.13.29s-.23.374-1.31.532c-1.082.158-2.043.222-2.094-.614-.091-1.065.093-1.308.365-1.375-8.272-3.334-14.346-8.085-15.91-12.264l-2.12 8.161c2.458-1.433.213 3.562.256 4.738.047 1.188.03 2.23-.663 2.293-.44.038-.705-.478-1.113-1.18l-2.728 10.505c.134.035.269.084.402.163 1.436.837 1.568.495-.328 2.197-.726 1.92-.966 2.184-1.265 2.22L7.587 46.039c.3.266.76.624 1.448 1.026 1.437.838 2.592-1.54 1.41 1.59-1.18 3.13-1.08.476-2.035.992-.444.239-1.16.297-1.816.214l-.246.953c-.012.037-.02.072-.032.108-1.295 3.986 4.018 10.396 16.418 14.425 3.901 1.268 7.37 1.932 10.338 2.122-.412-1.17-.847-1.252 1.35-2.528 2.579-1.5 2.722 1.06 3.614 1.465.46.209.877.424 1.126.685 2.924-.662 4.77-2.032 5.333-3.764.011-.036.023-.07.038-.106l5.296-13.494-.163-.196s-1.83-.98-.84-2.235c.879-1.12 1.611-.856 2.425-1.188l4.676-11.913c-.369.349-.645.516-.698.213-.139-.79-.084-5.062.989-5.25zm-36.505 1.628s-1.464 1.701-2.312.753c-.85-.947 1.082-1.56.756-2.54-.705-2.127 1.198-2.318 1.933-2.478.736-.16 1.402 1.597 1.374 2.21-.032.613-.871.971-1.75 2.055zm-2.06 28.19c-.526.212-2.501.539-2.967-.199 0 0-.876-1.087-.638-2.084.366-1.553-.073-2.827 1.825-2.05 1.9.779.12 1.215.353 2.054.233.84 1.951 2.068 1.427 2.28zm4.729-10.678s-.313.09-.964-.6c-.65-.693-1.335-.85-.79-1.977.955-1.542 1.067-.572 1.618-.707.55-.134.048 1.23.034 1.69-.016.456.654 1.489.102 1.594zm8.99-17.089c-.833 2.208-.22 1.312-.892 1.675-.677.363-.98.895-1.077.34-.1-.558-.028-2.57.654-2.9 0 0 1.073-1.258 2.085-.666 1.015.592.569.352-.77 1.551zm3.932 19.97c-.68.274-2.685 1.587-4.273-.484 0 0-.91-1.466-.01-3.322.9-1.857-.146-2.562 2.32-1.553 2.466 1.008-.11 2.232.192 3.323.305 1.09 2.452 1.762 1.77 2.035zM47.02 38.356c-.388.156-1.745.31-1.894-.324 0 0-1.306-.312-.793-1.372.515-1.059.93-1.726 1.598-.545 1.406.576 1.31-.352 1.484.271.172.622-.005 1.813-.395 1.97z"/><path d="M23.906 8.51a31.418 31.418 0 003.851 2.793c.159-.488.476-1.06 1.112-1.337 1.225-.535 1.249-1.437 1.925.736.674 2.174-.435.906-.78 1.749a2.55 2.55 0 00-.044.131c2.613 1.411 5.56 2.667 8.707 3.69 5.936 1.929 11.8 2.781 16.511 2.402a19.906 19.906 0 002.433-.34c-.097-.257-.127-.513-.032-.727 0 0 .102-1.485 1.126-1.932 1.026-.447.964-.645.644 1.008.168.537.247.864.272 1.082 1.443-.552 2.14-1.198 2.262-1.574.212-.651-.478-2.962-3.965-5.951-1.508-1.294-3.316-2.532-5.344-3.676-.337-.051-.65-.102-.855-.079-.692.081-2.431 1.81-2.455.62 0 0-.04-.55.844-1.834a54.462 54.462 0 00-6.958-2.793c-3.278-1.065-6.531-1.8-9.583-2.183-.606 1.29-.692.567-1.457.979-.957.517-2.765.543-2.904-.247-.042-.244.072-.62.276-1.033a28.968 28.968 0 00-2.845.081c-4.577.37-6.493 1.834-6.705 2.485-.211.652.478 2.962 3.964 5.95zm20.677-.057c.44-.648.798-.784 1.1-.428.3.356-.729 1.884-1.232 2.592 0 0 .508 2.247-1.193 1.449-1.021-.478.22-1.21.038-2.134-.227-1.17.846-.83 1.287-1.479z"/></g><defs><clipPath id="da"><path transform="rotate(18 25.365 65.09)" d="M0 0h45.772v66.224H0z"/></clipPath></defs></svg><svg viewBox="0 -19.04 75.803 75.803" id="arrow" xmlns="http://www.w3.org/2000/svg"><g data-name="Group 66"><path data-name="Path 58" d="M75.803 36.23a1.5 1.5 0 01-2.561 1.061L39.682 3.734a2.53 2.53 0 00-3.564 0L2.56 37.291A1.5 1.5 0 01.439 35.17L33.996 1.613a5.531 5.531 0 017.808 0L75.363 35.17a1.494 1.494 0 01.44 1.06z"/></g></svg><svg viewBox="0 0 428 600" id="barrel" xmlns="http://www.w3.org/2000/svg"><path d="M407.504 388.762l.042-.797c1.335-25.338 2.667-54.71 2.667-88.757 0-22.704-.666-44.063-1.336-62.728l-.173-4.836-3.844 2.94c-16.515 12.632-44.854 22.54-78.989 29.269-34.043 6.711-73.516 10.198-112.02 10.198-38.503 0-77.978-3.487-112.021-10.198-34.135-6.729-62.475-16.637-78.987-29.269l-3.851-2.946-.167 4.846c-.665 19.324-1.336 40.02-1.336 62.724 0 34.008.665 63.402 2.672 88.822l.056.71.422.574c4.524 6.154 12.705 11.953 23.68 17.204 11.032 5.28 25.131 10.119 41.773 14.228 33.289 8.219 76.963 13.566 127.093 13.567l194.319-45.551zm0 0l-.497.625m.497-.625l-.497.625m0 0c-4.848 6.106-13.246 11.888-24.409 17.138-11.213 5.275-25.432 10.113-42.157 14.222-33.453 8.218-77.124 13.565-127.251 13.566l193.817-44.926zM45.942 35.812c-9.495 6.367-15.651 13.403-18.084 20.996h.556l-1.445 3.463c-3.155 7.56-25.123 70.503-24.454 238.92v.01c0 177.121 24.642 237.293 25.716 239.438l.029.057.025.058c7.891 18.001 28.351 32.683 60.173 42.852 31.728 10.14 74.251 15.625 125.397 15.625 51.144 0 93.666-5.485 125.394-15.625 31.821-10.169 52.283-24.851 60.176-42.852l.025-.057.028-.055c1.072-2.149 25.718-62.323 25.718-239.441 0-168.404-22.632-231.35-25.789-238.932l-.1-.24-.048-.255c-1.657-8.733-8.123-16.774-18.842-23.962-10.694-7.172-25.327-13.289-42.68-18.248C303.047 7.65 257.991 2.5 213.181 2.5S123.313 7.65 88.622 17.564c-17.353 4.96-31.987 11.076-42.68 18.248zM34.876 88.689l1.013-4.051 3.093 2.805c13.81 12.526 38.902 22.248 70.038 28.809 31.026 6.538 67.656 9.858 104.161 9.858 66.556 0 110.23-9.792 137.187-19.509 13.48-4.859 22.787-9.702 28.692-13.298 2.953-1.799 5.057-3.287 6.407-4.311a37.299 37.299 0 001.475-1.17c.156-.131.268-.229.339-.29l.034-.031.043-.038.022-.02.021-.019a2.08 2.08 0 01.038-.033c.037-.03.793-.453 1.606-.594v-.002h.015v.004c1.35.406 2.314 1.587 2.356 1.704.014.042.033.105.039.127l.018.07.013.052.02.09.066.297a527.75 527.75 0 011.124 5.302 844.053 844.053 0 012.891 14.631c2.252 11.936 4.925 27.494 6.602 41.907l.156 1.343-1.039.866c-12.45 10.378-35.899 20.314-67.824 27.671-32.019 7.378-72.847 12.224-120.309 12.224-42.117 0-82.096-4.011-115.017-10.966-32.804-6.93-58.98-16.859-73.138-28.948l-1.017-.869.158-1.328c3.343-28.071 7.358-48.834 10.718-62.283zm365.452 76.492l.63-.42h3.041l.207 2.273c1.336 14.68 2.679 31.429 2.67 50.872v.82l-.486.66c-4.524 6.153-12.747 11.993-23.791 17.305-11.104 5.341-25.305 10.265-42.072 14.458-33.539 8.387-77.547 13.902-128.015 13.902-50.466 0-94.309-5.514-127.766-13.902-16.726-4.192-30.905-9.116-42.038-14.455-11.078-5.314-19.363-11.146-24.046-17.27l-.575-.753.068-.944c1.334-18.663 2.666-36.009 4.002-50.693l.377-4.142 3.48 2.277c16.935 11.073 43.388 20.323 75.902 26.795 32.463 6.46 70.769 10.113 111.265 10.113 41.165 0 79.638-3.653 112.015-10.113 32.43-6.471 58.54-15.719 75.132-26.783zm-14.917 367.477l-2.336-.888 2.336.889-.029.076-.034.074c-5.767 12.614-21.581 24.915-49.205 34.07-27.735 9.191-67.827 15.37-122.952 15.37-55.124 0-95.383-6.179-123.2-15.37-26.581-8.782-42.267-20.476-48.28-32.609h-.907v-2.207a26.325 26.325 0 00-.122-.389c-.076-.24-.171-.531-.287-.888a222.946 222.946 0 01-2.913-9.678c-2.103-7.571-4.95-19.137-7.962-35.532l-.948-5.157 4.604 2.511c36.099 19.692 104.21 32.346 180.013 32.346 75.808 0 143.922-12.654 180.014-32.346l4.603-2.512-.947 5.158c-3.011 16.393-5.858 28.125-7.96 35.778-1.051 3.826-1.915 6.633-2.521 8.493-.303.93-.541 1.623-.705 2.089-.082.233-.146.409-.19.529l-.051.139-.014.038-.005.011-.001.004-.001.001zm14.106-65.115l-.164.988-.801.601c-15.108 11.336-41.204 20.754-73.444 27.354-32.329 6.618-71.139 10.463-111.923 10.463-40.784 0-79.591-3.844-111.92-10.462-31.763-6.503-57.563-15.74-72.77-26.854h-1.41l-.264-2.203c-.444-3.7-.922-7.539-1.418-11.529-1.733-13.925-3.695-29.692-5.253-47.863l-.45-5.26 4.354 2.984c17.554 12.03 45.956 21.448 79.582 27.842 33.554 6.381 72.036 9.702 109.541 9.702 37.851 0 76.501-3.155 110.049-9.452 33.629-6.312 61.833-15.727 79.031-28.061l4.411-3.164-.464 5.409c-1.999 23.322-4.005 43.403-6.687 59.505zM42.136 63.973c0-3.024 1.368-5.94 3.57-8.638 2.21-2.704 5.394-5.36 9.393-7.929 8.003-5.139 19.632-10.156 34.37-14.566 29.506-8.829 71.89-15.348 123.712-15.348 51.819 0 94.203 6.52 123.71 15.348 14.738 4.41 26.367 9.427 34.371 14.566 3.999 2.569 7.183 5.225 9.393 7.93 2.203 2.696 3.571 5.613 3.571 8.636 0 3.023-1.368 5.94-3.571 8.637-2.209 2.705-5.394 5.36-9.393 7.929-8.002 5.14-19.632 10.156-34.369 14.566-29.506 8.829-71.89 15.348-123.712 15.348-51.488 0-93.871-6.52-123.458-15.347-14.779-4.41-26.47-9.426-34.523-14.563-4.024-2.567-7.232-5.222-9.46-7.925-2.219-2.695-3.604-5.614-3.604-8.645z"/><path d="M272.308 63.973c0 .59.354 1.572 1.929 2.84 1.55 1.246 3.976 2.503 7.279 3.618 6.583 2.221 16.123 3.7 27.597 3.7 11.504 0 21.046-1.318 27.623-3.457 3.299-1.074 5.703-2.306 7.233-3.563 1.52-1.248 1.949-2.312 1.949-3.138 0-.59-.354-1.572-1.929-2.84-1.549-1.246-3.975-2.503-7.279-3.618-6.583-2.221-16.123-3.7-27.597-3.7-11.814 0-21.348 1.48-27.838 3.696-3.256 1.111-5.612 2.363-7.104 3.599-1.506 1.246-1.863 2.231-1.863 2.863z"/></svg><svg viewBox="0 0 694 1221" id="bottle" xmlns="http://www.w3.org/2000/svg"><path d="M344.292 355.189c-57.205-18.319-56.498-26.596-58.973-36.624-2.096-8.492-38.03-154.883-56.33-229.371 4.191-2.678 6.529-7.343 5.446-11.729l-4.626-18.742c-1.08-4.375-5.227-7.154-10.062-7.205l-1.265-5.126s-2.543-20.04-64.21-2.103l-1.986.578c-61.68 17.94-54.639 36.671-54.639 36.671l1.265 5.125c-4.158 2.693-6.472 7.338-5.395 11.701l4.627 18.743c1.082 4.386 5.229 7.165 10.105 7.205 18.476 74.437 54.774 220.723 56.87 229.214 2.478 10.04 6.888 16.815-34.203 63.725-41.09 46.911-25.365 99.408-25.365 99.408s144.462 547.571 164.017 627.961c19.546 80.41 163.024 31.53 163.024 31.53s146.771-35.55 126.664-115.77c-20.096-80.241-147.209-632.854-147.209-632.854.014-.004-10.576-53.993-67.759-72.335l.004-.002z"/><path d="M408.139 426.202l.166.644.369 1.603 3.373-.923c-3.373.923-3.373.925-3.372.929l.004.019.018.076.069.3.273 1.187 1.067 4.638 1.543 6.706 2.526 10.971a246310.619 246310.619 0 0060.568 262.438c34.285 148.16 71.097 306.42 81.155 346.58 4.721 18.83-.291 34.98-10.676 48.86-10.485 14.01-26.438 25.68-43.324 35.02-16.842 9.32-34.349 16.19-47.679 20.74a324.909 324.909 0 01-16.177 5.07c-1.962.56-3.506.97-4.554 1.25-.524.13-.924.24-1.191.3-.123.03-.218.06-.283.07l-.016.01-.072.01-.016.01h-.003l-.155.04-.151.05h-.019l-.07.03c-.064.02-.162.05-.293.1-.262.08-.656.21-1.173.38-1.034.33-2.562.81-4.517 1.39-3.913 1.17-9.534 2.74-16.345 4.39-13.638 3.3-31.965 6.85-50.843 7.92-18.929 1.07-38.117-.37-53.653-6.82-15.389-6.39-27.167-17.65-31.756-36.53l-3.364.96 3.364-.96c-9.788-40.24-50.803-197.276-89.357-344.195a245831.171 245831.171 0 00-68.431-260.151l-4.619-17.517-1.212-4.596-.31-1.176-.078-.297-.02-.075-.005-.019c-.001-.004-.002-.006-3.349 1.025l3.347-1.031-.015-.056-.015-.051v-.002l-.001-.002-.004-.013-.025-.088c-.023-.083-.06-.215-.108-.394a51.317 51.317 0 01-.4-1.63 81.893 81.893 0 01-1.168-6.314c-.803-5.458-1.464-13.231-.881-22.428 1.166-18.369 7.288-42.384 27.181-65.095 20.548-23.458 30.087-37.273 34.067-46.691 2.037-4.821 2.677-8.618 2.53-12.023-.115-2.669-.737-5.047-1.261-7.053a80.244 80.244 0 01-.318-1.24c-2.097-8.494-38.396-154.783-56.871-229.218l-.629-2.533-2.58-.021c-3.699-.03-6.264-2.088-6.896-4.647l-4.626-18.742c-.625-2.532.646-5.705 3.815-7.757l2.201-1.426-.621-2.518-1.265-5.126-.049-.199-.032-.083a2.5 2.5 0 01-.029-.173c-.032-.243-.061-.706.037-1.364.19-1.278.901-3.544 3.47-6.534 5.25-6.11 18.087-15.032 48.719-23.942l1.987-.578c30.626-8.908 45.853-8.148 53.216-5.706 3.603 1.195 5.264 2.772 6.018 3.775.389.517.577.934.661 1.162.029.077.046.133.055.166l.011.088.049.198 1.265 5.125.625 2.53 2.577.028c3.66.04 6.23 2.096 6.86 4.647l4.627 18.743c.629 2.549-.659 5.735-3.848 7.772l-2.222 1.42.622 2.532c9.066 36.899 22.459 91.444 33.922 138.131 11.677 47.556 21.351 86.958 22.409 91.244.098.397.195.814.296 1.25.469 2.018 1.025 4.412 2.153 6.784 1.44 3.029 3.741 5.97 7.726 9.041 6.741 5.195 18.615 10.984 40.257 18.392l-.177.052 10.931 3.506c27.684 8.88 44.052 26.358 53.527 41.634 4.743 7.648 7.753 14.739 9.571 19.9a80.735 80.735 0 011.897 6.101z"/></svg><svg viewBox="0 0 405.272 405.272" id="check" xmlns="http://www.w3.org/2000/svg"><path d="M393.401 124.425L179.603 338.208c-15.832 15.835-41.514 15.835-57.361 0L11.878 227.836c-15.838-15.835-15.838-41.52 0-57.358 15.841-15.841 41.521-15.841 57.355-.006l81.698 81.699L336.037 67.064c15.841-15.841 41.523-15.829 57.358 0 15.835 15.838 15.835 41.514.006 57.361z"/></svg><svg viewBox="0 0 543 640" id="clients" xmlns="http://www.w3.org/2000/svg"><path d="M73.484 117.622v-.001c0-62.035 50.479-112.532 112.523-112.532 62.018 0 112.504 50.485 112.504 112.532 0 62.049-50.473 112.552-112.504 112.552-62.044 0-112.53-50.496-112.523-112.551zm205.044.003c0-51.026-41.505-92.543-92.521-92.543-51.041 0-92.54 41.517-92.54 92.543 0 51.044 41.511 92.561 92.54 92.561 51.017 0 92.521-41.523 92.521-92.561zm285.081 138.967h.113l.114-.005c.912-.046 14.101-.503 29.022 5.909 14.681 6.308 31.221 19.321 39.451 46.618l.005.033.099.315c.599 1.911 1.374 6.723.36 17.138-1.006 10.338-3.743 25.897-9.88 49.111l-.006.021-.005.021-49.245 193.818c-2.64 4.671-25.774 42.475-82.492 42.475h-.404c-3.547 0-21.408-.38-39.895-7.223-18.427-6.82-36.865-19.791-43.093-44.718l-.003-.013-41.984-165.957-8.738.049a642.666 642.666 0 01-3.614 14.296l-.008.027-.006.027-63.313 251.382-.564 1.06-.006.011-.007.012c-.919 1.752-29.536 54.494-105.549 54.494h-.54c-4.541 0-27.237-.475-50.726-9.081-23.437-8.586-47.016-24.986-54.9-56.547l-.004-.013-62.373-246.563-.034-.136-.043-.133c-1.272-3.975-5.928-19.249-8.475-37.544-2.567-18.442-2.862-39.111 3.836-54.43.748-1.541 7.557-15.099 21.01-28.323 13.642-13.409 33.882-26.265 61.487-26.265h185.806l.109-.005c1.807-.088 46.416-1.479 73.127 37.85l3.888 5.726 3.655-5.878c7.551-12.141 27.508-37.559 62.024-37.559h141.801zM334.053 403.474l.068-.272c14.056-53.259 12.944-70.809 12.547-74.001l-.048-.391-.116-.376c-7.32-23.814-20.733-36.966-34.005-44.064-13.129-7.021-25.812-7.959-31.693-7.959h-.055l-.055.001-1.59.039H93.188c-21.754 0-37.85 10.811-48.356 21.354-10.488 10.525-15.74 21.099-15.96 21.552l-.036.075-.033.075c-2.485 5.664-3.5 12.62-3.696 19.775-.197 7.214.43 14.958 1.452 22.389 2.035 14.794 5.692 28.751 7.9 35.552l.228.786 62.48 246.96.002.008c6.268 25.068 26.705 37.637 45.482 43.903 14.635 4.885 28.878 6.174 36.262 6.506v10.106l8.999.092.207-10.156c54.375-1.712 78.16-34.808 82.824-42.276l.374-.6.173-.685 62.563-248.393zM555.866 560l47.658-189.235h.003c10.213-38.663 9.908-52.436 9.657-55.481l-.041-.499-.15-.478c-5.385-17.179-15.132-26.757-24.822-31.94-9.551-5.109-18.739-5.792-23.019-5.792h-.049l-.048.001-1.205.026H421.807c-15.946 0-27.73 7.984-35.365 15.675a69.566 69.566 0 00-8.608 10.618 61.161 61.161 0 00-2.194 3.579 40.97 40.97 0 00-.583 1.067c-.136.257-.227.44-.217.42l-.061.12-.054.123c-1.743 3.975-2.439 8.886-2.585 13.884-.149 5.067.26 10.581.962 15.971 1.397 10.721 4.009 21.351 6.071 27.703l.228.793 47.72 188.663.001.002c4.704 18.83 20.922 27.925 34.96 32.314 14.161 4.427 27.439 4.526 28.645 4.526h.182c41.788 0 60.283-24.373 64.375-30.72l.402-.622.18-.718zm25.181-407.106c0 48.699-39.627 88.342-88.333 88.342-48.692 0-88.319-39.642-88.319-88.342 0-48.714 39.621-88.356 88.319-88.356 48.699 0 88.333 39.636 88.333 88.356zm-19.99-.007c0-37.696-30.646-68.359-68.343-68.359-37.677 0-68.329 30.663-68.329 68.359 0 37.682 30.638 68.345 68.329 68.345 37.688 0 68.343-30.647 68.343-68.345z" opacity=".7"/></svg><svg viewBox="0 0 14 14" id="home" xmlns="http://www.w3.org/2000/svg"><path d="M1 7l1.333-1.333m0 0L7 1l4.667 4.667m-9.334 0v6.666c0 .368.299.667.667.667h2m6.667-7.333L13 7m-1.333-1.333v6.666A.667.667 0 0111 13H9m-4 0a.667.667 0 00.667-.667V9.667c0-.369.298-.667.666-.667h1.334c.368 0 .666.298.666.667v2.666c0 .368.299.667.667.667m-4 0h4"/></svg><svg viewBox="0 0 47 47" id="insta" xmlns="http://www.w3.org/2000/svg"><g clip-path="url(#ka)"><path d="M23.148 12.803a10.72 10.72 0 1010.719 10.719 10.73 10.73 0 00-10.719-10.719zm0 18.642a7.923 7.923 0 117.922-7.923 7.931 7.931 0 01-7.922 7.923zM33.401.687H12.895A12.597 12.597 0 00.313 13.269v20.506a12.597 12.597 0 0012.582 12.583h20.506a12.597 12.597 0 0012.582-12.583V13.269A12.597 12.597 0 0033.401.687zm9.786 33.088a9.798 9.798 0 01-9.786 9.786H12.895a9.798 9.798 0 01-9.786-9.786V13.269a9.798 9.798 0 019.786-9.786h20.506a9.798 9.798 0 019.786 9.786v20.506zm-5.592-22.37a2.33 2.33 0 11-4.661 0 2.33 2.33 0 014.661 0z"/><path fill-rule="evenodd" clip-rule="evenodd" d="M12.894.376H33.4A12.91 12.91 0 0146.294 13.27v20.506A12.909 12.909 0 0133.4 46.67H12.894A12.91 12.91 0 010 33.776V13.27A12.91 12.91 0 0112.894.376zm0 .623A12.286 12.286 0 00.624 13.27v20.505a12.286 12.286 0 0012.272 12.272H33.4a12.286 12.286 0 0012.272-12.272V13.271A12.286 12.286 0 0033.399.999H12.895zm0 2.173H33.4A10.11 10.11 0 0143.498 13.27v20.506A10.11 10.11 0 0133.4 43.874H12.894A10.11 10.11 0 012.796 33.776V13.27A10.11 10.11 0 0112.894 3.172zm20.505.623H12.895a9.486 9.486 0 00-9.476 9.476v20.504a9.487 9.487 0 009.476 9.476h20.504a9.486 9.486 0 009.476-9.476V13.27a9.486 9.486 0 00-9.476-9.475zm1.864 5.592a2.019 2.019 0 10.001 4.038 2.019 2.019 0 000-4.038zm2.642 2.019a2.644 2.644 0 00-4.109-2.196 2.642 2.642 0 104.11 2.196zM17.02 14.352a11.03 11.03 0 016.128-1.86 11.043 11.043 0 0111.03 11.03 11.031 11.031 0 11-17.158-9.17zm6.128-1.236a10.407 10.407 0 1010.407 10.407 10.42 10.42 0 00-10.408-10.407zm2.913 3.375a7.61 7.61 0 10-2.913 14.643 7.62 7.62 0 007.611-7.611 7.61 7.61 0 00-4.698-7.032zm-2.913 15.266a8.243 8.243 0 008.234-8.234 8.234 8.234 0 10-8.234 8.234z"/></g><defs><clipPath id="ka"><path transform="translate(0 .376)" d="M0 0h46.294v46.294H0z"/></clipPath></defs></svg><svg viewBox="0 0 16 16" id="insta-contacts" xmlns="http://www.w3.org/2000/svg"><g clip-path="url(#la)"><path d="M15.948 4.722a5.786 5.786 0 00-.372-1.965A4.089 4.089 0 0013.236.42a5.878 5.878 0 00-1.941-.37C10.44.01 10.17 0 8 0S5.551 0 4.703.049c-.664.013-1.32.14-1.942.372A4.094 4.094 0 00.422 2.757 5.805 5.805 0 00.05 4.695C.012 5.549 0 5.82 0 7.985c0 2.167 0 2.444.05 3.292.013.663.138 1.318.372 1.94a4.087 4.087 0 002.34 2.334c.62.242 1.277.377 1.942.4C5.559 15.987 5.83 16 8 16s2.448 0 3.296-.05a5.864 5.864 0 001.943-.371 4.102 4.102 0 002.339-2.336 5.835 5.835 0 00.372-1.94c.038-.853.05-1.124.05-3.29-.002-2.167-.002-2.442-.052-3.29zm-7.954 7.36a4.103 4.103 0 01-4.108-4.1 4.11 4.11 0 017.012-2.9 4.097 4.097 0 010 5.799 4.111 4.111 0 01-2.904 1.201zm4.27-7.397a.959.959 0 01-.957-.956.955.955 0 011.324-.883.958.958 0 01.59.883.956.956 0 01-.956.956z"/><path d="M7.988 10.584c1.513 0 2.74-1.165 2.74-2.602 0-1.438-1.227-2.603-2.74-2.603-1.513 0-2.74 1.165-2.74 2.603 0 1.437 1.227 2.602 2.74 2.602z"/></g><defs><clipPath id="la"><path d="M0 0h16v16H0z"/></clipPath></defs></svg><svg viewBox="0 0 24 24" id="lang" xmlns="http://www.w3.org/2000/svg"><path d="M21.431 15.335A10.002 10.002 0 0112.001 22c-4.353 0-8.057-2.782-9.43-6.665A17.916 17.916 0 0012.001 18c3.458 0 6.688-.975 9.43-2.665zm-.304-7.43a9.962 9.962 0 01.862 4.596A15.932 15.932 0 0112.001 16c-3.778 0-7.25-1.31-9.988-3.5a9.964 9.964 0 01.862-4.595A14.935 14.935 0 0012.001 11c3.434 0 6.598-1.154 9.126-3.095zM12.001 2a9.99 9.99 0 018.116 4.156A12.945 12.945 0 0112.001 9C8.931 9 6.11 7.936 3.885 6.156A9.987 9.987 0 0112.001 2z"/></svg><svg viewBox="0 0 20 14" id="left" xmlns="http://www.w3.org/2000/svg"><path fill-rule="evenodd" clip-rule="evenodd" d="M19.45 7a.675.675 0 00-.675-.674H2.855l4.248-4.247a.676.676 0 00-.956-.956l-5.4 5.4a.675.675 0 000 .956l5.4 5.4a.677.677 0 001.102-.737.675.675 0 00-.146-.22L2.854 7.677h15.92A.675.675 0 0019.45 7z"/></svg><svg viewBox="0 0 22 17" id="mail" xmlns="http://www.w3.org/2000/svg"><path d="M19.275.35H3.525A2.628 2.628 0 00.9 2.975v11.25a2.628 2.628 0 002.625 2.625h15.75a2.627 2.627 0 002.625-2.625V2.975A2.628 2.628 0 0019.275.35zm-.664 4.342l-6.75 5.25a.75.75 0 01-.92 0l-6.75-5.25a.75.75 0 11.92-1.184l6.29 4.891 6.29-4.891a.75.75 0 01.92 1.184z"/></svg><svg viewBox="0 0 14 18" id="map" xmlns="http://www.w3.org/2000/svg"><g clip-path="url(#pa)"><path d="M7.008 1.781A6.195 6.195 0 00.82 7.97c0 5.294 5.625 9.295 5.864 9.464a.583.583 0 00.647 0c.24-.169 5.864-4.17 5.864-9.464a6.194 6.194 0 00-6.187-6.19zm0 3.938a2.25 2.25 0 110 4.5 2.25 2.25 0 010-4.5z"/></g><defs><clipPath id="pa"><path transform="translate(.25 .967)" d="M0 0h13.5v16.875H0z"/></clipPath></defs></svg><svg viewBox="0 0 25 25" id="phone" xmlns="http://www.w3.org/2000/svg"><path fill-rule="evenodd" clip-rule="evenodd" d="M16.951 22.733c-1.44-.053-5.52-.617-9.795-4.89C2.883 13.57 2.32 9.49 2.266 8.048c-.08-2.196 1.602-4.329 3.545-5.162a1.47 1.47 0 011.445.16c1.6 1.165 2.704 2.93 3.652 4.316a1.504 1.504 0 01-.256 1.986l-1.95 1.45a.48.48 0 00-.143.615c.442.803 1.228 2 2.128 2.9.901.9 2.153 1.737 3.012 2.23a.484.484 0 00.644-.163l1.27-1.933a1.502 1.502 0 012.056-.332c1.407.974 3.05 2.06 4.251 3.598a1.47 1.47 0 01.19 1.485c-.838 1.953-2.956 3.616-5.159 3.535z"/></svg><svg viewBox="0 0 20 14" id="right" xmlns="http://www.w3.org/2000/svg"><path fill-rule="evenodd" clip-rule="evenodd" d="M.55 7a.675.675 0 01.675-.674h15.92l-4.248-4.247a.674.674 0 01.22-1.103.676.676 0 01.736.147l5.4 5.4a.675.675 0 010 .956l-5.4 5.4a.678.678 0 01-1.102-.22.675.675 0 01.146-.736l4.249-4.247H1.226A.675.675 0 01.55 7z"/></svg><svg viewBox="0 0 12 16" id="shape" xmlns="http://www.w3.org/2000/svg"><path fill-rule="evenodd" clip-rule="evenodd" d="M0 2a2 2 0 012-2h4.586A2 2 0 018 .586L11.414 4A2 2 0 0112 5.414V14a2 2 0 01-2 2H2a2 2 0 01-2-2V2z"/></svg><svg viewBox="0 0 28 28" id="telegram" xmlns="http://www.w3.org/2000/svg"><path fill-rule="evenodd" clip-rule="evenodd" d="M27.999 13.6c0 7.51-6.09 13.6-13.6 13.6S.799 21.11.799 13.6 6.889 0 14.399 0s13.6 6.09 13.6 13.6zm-13.113-3.56c-1.322.55-3.966 1.689-7.93 3.416-.645.256-.982.507-1.013.752-.052.414.467.578 1.172.799.096.03.196.06.298.095.695.225 1.629.49 2.114.5.44.008.932-.173 1.475-.545 3.704-2.5 5.616-3.764 5.736-3.792.085-.019.203-.044.282.027.08.07.072.204.064.24-.052.22-2.086 2.111-3.14 3.09-.328.305-.56.522-.608.572-.107.11-.216.215-.32.316-.646.62-1.129 1.088.027 1.85.556.365 1 .668 1.443.97.484.33.967.658 1.592 1.068.16.104.311.212.46.317.563.403 1.07.763 1.695.707.363-.035.739-.376.93-1.395.45-2.409 1.335-7.627 1.54-9.778a2.4 2.4 0 00-.022-.535.574.574 0 00-.195-.368c-.162-.133-.414-.161-.527-.159-.511.01-1.295.282-5.073 1.853z"/></svg><svg viewBox="0 0 26 26" id="whatsapp" xmlns="http://www.w3.org/2000/svg"><path fill-rule="evenodd" clip-rule="evenodd" d="M2.191 18.749a12.112 12.112 0 01-1.643-6.102C.551 5.916 6.071.44 12.853.44a12.276 12.276 0 018.705 3.58 12.082 12.082 0 013.6 8.635c-.002 6.73-5.523 12.206-12.304 12.206h-.005c-2.055 0-4.076-.511-5.88-1.486L.445 25.073l1.746-6.324zM8.953 6.81c.227.01.478.02.717.546.163.359.436 1.028.655 1.561.161.396.293.717.327.785.08.158.133.342.026.553l-.045.09c-.08.162-.138.28-.273.437l-.164.195c-.11.133-.219.265-.314.359-.16.157-.325.329-.14.644.186.317.825 1.351 1.772 2.189 1.017.9 1.9 1.28 2.35 1.474.088.037.16.068.211.094.319.158.505.132.69-.08.186-.21.796-.922 1.009-1.237.212-.317.424-.264.716-.159.292.105 1.858.87 2.177 1.028l.173.084c.223.107.373.179.437.285.08.132.08.764-.186 1.502-.265.738-1.565 1.45-2.15 1.502a6.661 6.661 0 00-.169.019c-.54.063-1.22.142-3.652-.81-2.992-1.17-4.964-4.07-5.372-4.67a3.373 3.373 0 00-.069-.1l-.003-.004c-.172-.227-1.297-1.72-1.297-3.264 0-1.455.72-2.218 1.052-2.569l.063-.066c.291-.316.637-.395.849-.395h.041c.199 0 .396 0 .57.007z"/></svg></svg>