<?xml version="1.0" encoding="utf-8"?><svg viewBox="0 0 28 28" xmlns="http://www.w3.org/2000/svg" xmlns:xlink="http://www.w3.org/1999/xlink"><style>:root>svg{display:none}:root>svg:target{display:block}</style><svg viewBox="0 0 24 24" id="lang" xmlns="http://www.w3.org/2000/svg"><path d="M21.431 15.335A10.002 10.002 0 0112.001 22c-4.353 0-8.057-2.782-9.43-6.665A17.916 17.916 0 0012.001 18c3.458 0 6.688-.975 9.43-2.665zm-.304-7.43a9.962 9.962 0 01.862 4.596A15.932 15.932 0 0112.001 16c-3.778 0-7.25-1.31-9.988-3.5a9.964 9.964 0 01.862-4.595A14.935 14.935 0 0012.001 11c3.434 0 6.598-1.154 9.126-3.095zM12.001 2a9.99 9.99 0 018.116 4.156A12.945 12.945 0 0112.001 9C8.931 9 6.11 7.936 3.885 6.156A9.987 9.987 0 0112.001 2z"/></svg><svg viewBox="0 0 20 14" id="left" xmlns="http://www.w3.org/2000/svg"><path fill-rule="evenodd" clip-rule="evenodd" d="M19.45 7a.675.675 0 00-.675-.674H2.855l4.248-4.247a.676.676 0 00-.956-.956l-5.4 5.4a.675.675 0 000 .956l5.4 5.4a.677.677 0 001.102-.737.675.675 0 00-.146-.22L2.854 7.677h15.92A.675.675 0 0019.45 7z"/></svg><svg viewBox="0 0 22 17" id="mail" xmlns="http://www.w3.org/2000/svg"><path d="M19.275.35H3.525A2.628 2.628 0 00.9 2.975v11.25a2.628 2.628 0 002.625 2.625h15.75a2.627 2.627 0 002.625-2.625V2.975A2.628 2.628 0 0019.275.35zm-.664 4.342l-6.75 5.25a.75.75 0 01-.92 0l-6.75-5.25a.75.75 0 11.92-1.184l6.29 4.891 6.29-4.891a.75.75 0 01.92 1.184z"/></svg><svg viewBox="0 0 25 25" id="phone" xmlns="http://www.w3.org/2000/svg"><path fill-rule="evenodd" clip-rule="evenodd" d="M16.951 22.733c-1.44-.053-5.52-.617-9.795-4.89C2.883 13.57 2.32 9.49 2.266 8.048c-.08-2.196 1.602-4.329 3.545-5.162a1.47 1.47 0 011.445.16c1.6 1.165 2.704 2.93 3.652 4.316a1.504 1.504 0 01-.256 1.986l-1.95 1.45a.48.48 0 00-.143.615c.442.803 1.228 2 2.128 2.9.901.9 2.153 1.737 3.012 2.23a.484.484 0 00.644-.163l1.27-1.933a1.502 1.502 0 012.056-.332c1.407.974 3.05 2.06 4.251 3.598a1.47 1.47 0 01.19 1.485c-.838 1.953-2.956 3.616-5.159 3.535z"/></svg><svg viewBox="0 0 20 14" id="right" xmlns="http://www.w3.org/2000/svg"><path fill-rule="evenodd" clip-rule="evenodd" d="M.55 7a.675.675 0 01.675-.674h15.92l-4.248-4.247a.674.674 0 01.22-1.103.676.676 0 01.736.147l5.4 5.4a.675.675 0 010 .956l-5.4 5.4a.678.678 0 01-1.102-.22.675.675 0 01.146-.736l4.249-4.247H1.226A.675.675 0 01.55 7z"/></svg><svg viewBox="0 0 28 28" id="telegram" xmlns="http://www.w3.org/2000/svg"><path fill-rule="evenodd" clip-rule="evenodd" d="M27.999 13.6c0 7.51-6.09 13.6-13.6 13.6S.799 21.11.799 13.6 6.889 0 14.399 0s13.6 6.09 13.6 13.6zm-13.113-3.56c-1.322.55-3.966 1.689-7.93 3.416-.645.256-.982.507-1.013.752-.052.414.467.578 1.172.799.096.03.196.06.298.095.695.225 1.629.49 2.114.5.44.008.932-.173 1.475-.545 3.704-2.5 5.616-3.764 5.736-3.792.085-.019.203-.044.282.027.08.07.072.204.064.24-.052.22-2.086 2.111-3.14 3.09-.328.305-.56.522-.608.572-.107.11-.216.215-.32.316-.646.62-1.129 1.088.027 1.85.556.365 1 .668 1.443.97.484.33.967.658 1.592 1.068.16.104.311.212.46.317.563.403 1.07.763 1.695.707.363-.035.739-.376.93-1.395.45-2.409 1.335-7.627 1.54-9.778a2.4 2.4 0 00-.022-.535.574.574 0 00-.195-.368c-.162-.133-.414-.161-.527-.159-.511.01-1.295.282-5.073 1.853z"/></svg><svg viewBox="0 0 26 26" id="whatsapp" xmlns="http://www.w3.org/2000/svg"><path fill-rule="evenodd" clip-rule="evenodd" d="M2.191 18.749a12.112 12.112 0 01-1.643-6.102C.551 5.916 6.071.44 12.853.44a12.276 12.276 0 018.705 3.58 12.082 12.082 0 013.6 8.635c-.002 6.73-5.523 12.206-12.304 12.206h-.005c-2.055 0-4.076-.511-5.88-1.486L.445 25.073l1.746-6.324zM8.953 6.81c.227.01.478.02.717.546.163.359.436 1.028.655 1.561.161.396.293.717.327.785.08.158.133.342.026.553l-.045.09c-.08.162-.138.28-.273.437l-.164.195c-.11.133-.219.265-.314.359-.16.157-.325.329-.14.644.186.317.825 1.351 1.772 2.189 1.017.9 1.9 1.28 2.35 1.474.088.037.16.068.211.094.319.158.505.132.69-.08.186-.21.796-.922 1.009-1.237.212-.317.424-.264.716-.159.292.105 1.858.87 2.177 1.028l.173.084c.223.107.373.179.437.285.08.132.08.764-.186 1.502-.265.738-1.565 1.45-2.15 1.502a6.661 6.661 0 00-.169.019c-.54.063-1.22.142-3.652-.81-2.992-1.17-4.964-4.07-5.372-4.67a3.373 3.373 0 00-.069-.1l-.003-.004c-.172-.227-1.297-1.72-1.297-3.264 0-1.455.72-2.218 1.052-2.569l.063-.066c.291-.316.637-.395.849-.395h.041c.199 0 .396 0 .57.007z"/></svg></svg>